<svg width="16" height="15" viewBox="0 0 16 15" fill="none" xmlns="http://www.w3.org/2000/svg">
<g filter="url(#filter0_i_7_2)">
<path d="M6.9759 0.727591C7.2988 -0.24253 8.7009 -0.24253 9.0227 0.727591L10.1741 4.19517C10.2445 4.40635 10.3812 4.59036 10.5648 4.7209C10.7485 4.85143 10.9695 4.92181 11.1964 4.92197H14.9219C15.9647 4.92197 16.3973 6.22811 15.5547 6.82851L12.5416 8.97099C12.3576 9.10164 12.2206 9.28595 12.1502 9.49751C12.0799 9.70906 12.0797 9.93699 12.1499 10.1486L13.3013 13.6162C13.6241 14.5863 12.4888 15.3942 11.6441 14.7938L8.631 12.6513C8.4472 12.5207 8.2259 12.4504 7.9988 12.4504C7.7717 12.4504 7.5504 12.5207 7.3666 12.6513L4.35347 14.7938C3.5098 15.3942 2.37558 14.5863 2.69734 13.6162L3.84877 10.1486C3.91891 9.93699 3.91878 9.70906 3.84842 9.49751C3.77805 9.28595 3.64105 9.10164 3.45707 8.97099L0.445042 6.82956C-0.397548 6.22916 0.0361216 4.92303 1.0778 4.92303H4.80221C5.02932 4.92308 5.25062 4.85281 5.43445 4.72226C5.61827 4.59171 5.75518 4.40758 5.82559 4.19622L6.977 0.728645L6.9759 0.727591Z" fill="#F5C64B"/>
</g>
<defs>
<filter id="filter0_i_7_2" x="0" y="0" width="16" height="19" filterUnits="userSpaceOnUse" color-interpolation-filters="sRGB">
<feFlood flood-opacity="0" result="BackgroundImageFix"/>
<feBlend mode="normal" in="SourceGraphic" in2="BackgroundImageFix" result="shape"/>
<feColorMatrix in="SourceAlpha" type="matrix" values="0 0 0 0 0 0 0 0 0 0 0 0 0 0 0 0 0 0 127 0" result="hardAlpha"/>
<feOffset dy="4"/>
<feGaussianBlur stdDeviation="2"/>
<feComposite in2="hardAlpha" operator="arithmetic" k2="-1" k3="1"/>
<feColorMatrix type="matrix" values="0 0 0 0 0 0 0 0 0 0 0 0 0 0 0 0 0 0 0.25 0"/>
<feBlend mode="normal" in2="shape" result="effect1_innerShadow_7_2"/>
</filter>
</defs>
</svg>
