<svg width="24" height="21" viewBox="0 0 24 21" fill="none" xmlns="http://www.w3.org/2000/svg">
<g clip-path="url(#clip0_6_1253)">
<path d="M19.7782 20C21.3166 18.4434 22.3642 16.4603 22.7886 14.3013C23.2131 12.1423 22.9952 9.90441 22.1627 7.87068C21.3301 5.83696 19.9202 4.0987 18.1113 2.87573C16.3023 1.65276 14.1756 1 12 1C9.82441 1 7.69768 1.65276 5.88874 2.87573C4.07981 4.0987 2.66991 5.83696 1.83734 7.87068C1.00478 9.90441 0.786929 12.1423 1.21136 14.3013C1.63578 16.4603 2.68342 18.4434 4.22178 20" stroke="#518FED" strokeWidth="2" stroke-linejoin="round"/>
<path d="M16.3235 16.5023C17.178 15.6375 17.7599 14.5357 17.9955 13.3363C18.2312 12.1369 18.1101 10.8937 17.6475 9.76395C17.1849 8.63419 16.4016 7.66859 15.3967 6.98923C14.3918 6.30987 13.2103 5.94727 12.0017 5.94727C10.7931 5.94727 9.61169 6.30987 8.60675 6.98923C7.60182 7.66859 6.81854 8.63419 6.35596 9.76395C5.89338 10.8937 5.77227 12.1369 6.00793 13.3363C6.2436 14.5357 6.82547 15.6375 7.67996 16.5023" stroke="#518FED" strokeWidth="2" stroke-linejoin="round"/>
<path d="M12 13C12.5523 13 13 12.5523 13 12C13 11.4477 12.5523 11 12 11C11.4477 11 11 11.4477 11 12C11 12.5523 11.4477 13 12 13Z" stroke="white" strokeWidth="2" stroke-linejoin="round"/>
</g>
<defs>
<clipPath id="clip0_6_1253">
<rect width="24" height="21" fill="white"/>
</clipPath>
</defs>
</svg>
