<svg width="448" height="448" viewBox="0 0 448 448" fill="none" xmlns="http://www.w3.org/2000/svg">
<path d="M135.052 264.624C140.072 253.404 144.852 241.724 150.432 230.454C163.032 205.024 180.522 183.054 200.392 163.044C249.132 113.964 298.132 65.1338 347.062 16.2438C368.722 -5.40624 397.982 -5.39624 419.692 16.1638C424.172 20.6138 428.712 25.0238 433.072 29.5938C452.252 49.6838 452.552 78.9138 432.952 98.6338C381.632 150.304 330.302 201.974 278.212 252.874C264.642 266.124 248.592 276.954 233.082 288.054C225.752 293.304 217.052 296.674 208.852 300.664C200.222 304.874 191.462 308.814 183.052 312.724C167.152 296.784 151.092 280.694 135.052 264.624Z" fill="#F5C64B"/>
<path d="M92.7619 396.654C78.8519 382.684 65.0419 368.814 51.0219 354.734C75.5119 329.994 100.392 304.864 124.842 280.164C138.682 294.064 153.162 308.624 167.332 322.864C142.992 346.944 117.762 371.914 92.7619 396.654Z" fill="#F5C64B"/>
<path d="M67.8818 447.524C60.3518 447.464 55.1918 445.414 51.0118 441.254C36.0518 426.374 21.0218 411.564 6.30181 396.444C-2.35819 387.544 -1.94819 374.094 6.64181 365.504C15.1418 357.004 28.7218 356.684 37.5918 365.354C52.6918 380.094 67.6018 395.024 82.3418 410.124C89.1718 417.114 90.4218 425.694 86.4618 434.554C82.6518 443.084 75.5518 447.134 67.8818 447.524Z" fill="#F5C64B"/>
</svg>
