<svg width="18" height="20" viewBox="0 0 18 20" fill="none" xmlns="http://www.w3.org/2000/svg">
<path d="M14.4524 8.875C14.9689 13.5781 17 15 17 15H1C1 15 3.66667 13.1336 3.66667 6.6C3.66667 5.11512 4.22844 3.69063 5.22844 2.64062C6.22933 1.59062 7.58667 1 9 1C9.29956 1 9.59733 1.02625 9.88889 1.07875" stroke="#6A7080" strokeWidth="2" strokeLinecap="round" strokeLinejoin="round"/>
<path d="M16.0607 4.06066C15.7794 4.34196 15.3978 4.5 15 4.5C14.6022 4.5 14.2206 4.34197 13.9393 4.06066C13.658 3.77936 13.5 3.39782 13.5 3C13.5 2.60218 13.658 2.22064 13.9393 1.93934C14.2206 1.65804 14.6022 1.5 15 1.5C15.3978 1.5 15.7794 1.65804 16.0607 1.93934C16.342 2.22064 16.5 2.60217 16.5 3C16.5 3.39783 16.342 3.77936 16.0607 4.06066Z" stroke="#FF6086" strokeWidth="3" strokeLinecap="round" strokeLinejoin="round"/>
<path d="M11 18C10.797 18.3041 10.5053 18.5566 10.1543 18.7321C9.80327 18.9076 9.4052 19 9 19C8.5948 19 8.19672 18.9076 7.84569 18.7321C7.49466 18.5566 7.20301 18.3041 7 18" stroke="#6A7080" strokeWidth="2" strokeLinecap="round" strokeLinejoin="round"/>
</svg>
