<svg width="90" height="107" viewBox="0 0 90 107" fill="none" xmlns="http://www.w3.org/2000/svg">
<g style="mix-blend-mode:multiply" opacity="0.4" filter="url(#filter0_f_1050_376)">
<path d="M57.5046 69.93L46.8647 62.955L46.5729 50.2626C46.5653 49.9153 46.4427 49.5798 46.2243 49.3088C45.6773 48.6281 44.6785 48.5171 43.9932 49.0597L34.0828 56.9947L21.9004 53.3275C21.5649 53.2257 21.2083 53.2394 20.8836 53.3609C20.4901 53.5096 20.1721 53.8084 19.9997 54.1915C19.8272 54.5745 19.8142 55.0106 19.9637 55.4039L24.4764 67.2815L17.24 77.7076C17.0713 77.9499 16.9741 78.2348 16.9594 78.5298C16.9447 78.8248 17.0132 79.1182 17.1569 79.3767C17.3007 79.6352 17.5141 79.8485 17.7729 79.9923C18.0316 80.1361 18.3254 80.2048 18.621 80.1905L31.3232 79.5981L39.0343 89.7094C39.244 89.9872 39.5446 90.1874 39.8798 90.2782C40.7245 90.5084 41.5952 90.0141 41.824 89.1713L45.1594 76.9261L57.1588 72.7483C57.486 72.6334 57.7681 72.4157 57.9593 72.1229C58.4464 71.3951 58.2367 70.4133 57.5046 69.93Z" fill="#FFB45B"/>
</g>
<g opacity="0.64" filter="url(#filter1_f_1050_376)">
<path d="M72.2963 38.2093L61.6564 31.2343L61.3647 18.5419C61.357 18.1946 61.2344 17.8591 61.0161 17.5881C60.469 16.9074 59.4702 16.7964 58.7849 17.339L48.8745 25.274L36.6921 21.6068C36.3566 21.505 36 21.5187 35.6753 21.6402C35.2818 21.7889 34.9639 22.0877 34.7914 22.4708C34.6189 22.8538 34.606 23.2899 34.7555 23.6832L39.2682 35.5608L32.0317 45.9869C31.863 46.2292 31.7658 46.5141 31.7512 46.8091C31.7365 47.1041 31.8049 47.3975 31.9487 47.656C32.0925 47.9145 32.3058 48.1278 32.5646 48.2716C32.8234 48.4154 33.1172 48.4841 33.4127 48.4698L46.115 47.8774L53.826 57.9887C54.0357 58.2665 54.3363 58.4667 54.6715 58.5575C55.5162 58.7877 56.3869 58.2934 56.6158 57.4506L59.9511 45.2054L71.9506 41.0276C72.2777 40.9127 72.5598 40.695 72.7511 40.4022C73.2382 39.6744 73.0285 38.6926 72.2963 38.2093Z" fill="#FFB45B"/>
</g>
<path opacity="0.24" d="M70.5898 48.5085L58.4323 40.5319L58.1137 25.9946C58.1054 25.5967 57.9656 25.2126 57.7163 24.9025C57.0915 24.1234 55.9497 23.9974 55.1655 24.6198L43.8244 33.7201L29.8994 29.5342C29.5159 29.4179 29.1081 29.4341 28.7367 29.5736C28.2865 29.7444 27.9227 30.087 27.725 30.526C27.5274 30.965 27.512 31.4645 27.6825 31.9147L32.8283 45.5139L24.5418 57.4643C24.3487 57.7421 24.2372 58.0685 24.22 58.4064C24.2029 58.7443 24.2808 59.0803 24.4449 59.3762C24.609 59.6721 24.8527 59.9161 25.1484 60.0806C25.4441 60.245 25.78 60.3233 26.118 60.3066L40.6425 59.6131L49.4474 71.1853C49.6868 71.5033 50.0303 71.7323 50.4135 71.8359C51.3791 72.0985 52.3752 71.5313 52.6379 70.5657L56.466 56.5363L70.1912 51.7369C70.5654 51.605 70.8882 51.3553 71.1072 51.0197C71.665 50.1855 71.4264 49.0612 70.5898 48.5085Z" fill="#FFB45B"/>
<path opacity="0.48" d="M68.8991 52.1344L56.7417 44.1579L56.4231 29.6206C56.4147 29.2227 56.2749 28.8386 56.0256 28.5285C55.4009 27.7494 54.259 27.6234 53.4748 28.2458L42.1338 37.3461L28.2087 33.1602C27.8252 33.0439 27.4174 33.0601 27.046 33.1996C26.5959 33.3704 26.232 33.713 26.0343 34.1519C25.8367 34.5909 25.8214 35.0904 25.9918 35.5407L31.1377 49.1398L22.8512 61.0903C22.658 61.3681 22.5465 61.6944 22.5294 62.0324C22.5122 62.3703 22.5901 62.7063 22.7542 63.0022C22.9183 63.2981 23.162 63.5421 23.4577 63.7066C23.7535 63.871 24.0893 63.9493 24.4273 63.9326L38.9518 63.2391L47.7567 74.8113C47.9962 75.1293 48.3396 75.3582 48.7228 75.4619C49.6884 75.7245 50.6845 75.1573 50.9472 74.1917L54.7753 60.1623L68.5005 55.3629C68.8747 55.2309 69.1975 54.9812 69.4165 54.6456C69.9744 53.8114 69.7357 52.6871 68.8991 52.1344Z" fill="#FFB45B"/>
<g filter="url(#filter2_ii_1050_376)">
<path d="M67.2087 55.7594L55.0512 47.7829L54.7326 33.2456C54.7243 32.8477 54.5845 32.4636 54.3352 32.1535C53.7104 31.3744 52.5686 31.2484 51.7844 31.8708L40.4433 40.9711L26.5183 36.7852C26.1348 36.6689 25.727 36.6851 25.3555 36.8246C24.9054 36.9954 24.5416 37.338 24.3439 37.7769C24.1462 38.2159 24.1309 38.7154 24.3014 39.1657L29.4472 52.7648L21.1607 64.7153C20.9675 64.9931 20.8561 65.3194 20.8389 65.6574C20.8218 65.9953 20.8997 66.3313 21.0638 66.6272C21.2279 66.9231 21.4716 67.1671 21.7673 67.3316C22.063 67.496 22.3989 67.5743 22.7369 67.5576L37.2614 66.8641L46.0663 78.4363C46.3057 78.7543 46.6492 78.9832 47.0324 79.0869C47.998 79.3495 48.9941 78.7823 49.2568 77.8167L53.0849 63.7873L66.8101 58.9879C67.1843 58.8559 67.5071 58.6062 67.7261 58.2706C68.2839 57.4364 68.0453 56.3121 67.2087 55.7594Z" fill="#E3A358"/>
</g>
<g filter="url(#filter3_d_1050_376)">
<path d="M46.2186 55.1712C46.9981 55.7995 47.4873 56.5109 47.6861 57.3054C47.901 58.0941 47.8207 58.8908 47.4454 59.6956C47.1259 60.3808 46.6364 60.9337 45.9768 61.3543C45.3332 61.7692 44.5336 61.9789 43.5782 61.9836C42.6227 61.9882 41.5631 61.7192 40.3994 61.1766C39.5946 60.8013 38.8304 60.339 38.1067 59.7897C37.3939 59.2455 36.8171 58.6653 36.3761 58.0492L39.0048 55.8193C39.3457 56.3092 39.7496 56.7491 40.2166 57.139C40.6945 57.534 41.1835 57.8481 41.6838 58.0814C42.1297 58.2893 42.5241 58.3805 42.867 58.3551C43.2099 58.3296 43.4473 58.1755 43.5791 57.8927C43.8226 57.3707 43.4929 56.8992 42.5903 56.4783L41.0731 55.7708L42.1761 53.4053L44.6552 52.476L40.5768 50.5742L41.9309 47.6704L50.4465 51.6413L49.3435 54.0067L46.2186 55.1712Z" fill="white"/>
</g>
<defs>
<filter id="filter0_f_1050_376" x="0.95752" y="32.7158" width="73.2651" height="73.6191" filterUnits="userSpaceOnUse" color-interpolation-filters="sRGB">
<feFlood flood-opacity="0" result="BackgroundImageFix"/>
<feBlend mode="normal" in="SourceGraphic" in2="BackgroundImageFix" result="shape"/>
<feGaussianBlur stdDeviation="8" result="effect1_foregroundBlur_1050_376"/>
</filter>
<filter id="filter1_f_1050_376" x="15.7493" y="0.995117" width="73.2651" height="73.6191" filterUnits="userSpaceOnUse" color-interpolation-filters="sRGB">
<feFlood flood-opacity="0" result="BackgroundImageFix"/>
<feBlend mode="normal" in="SourceGraphic" in2="BackgroundImageFix" result="shape"/>
<feGaussianBlur stdDeviation="8" result="effect1_foregroundBlur_1050_376"/>
</filter>
<filter id="filter2_ii_1050_376" x="20.8367" y="29.4756" width="48.1917" height="53.6758" filterUnits="userSpaceOnUse" color-interpolation-filters="sRGB">
<feFlood flood-opacity="0" result="BackgroundImageFix"/>
<feBlend mode="normal" in="SourceGraphic" in2="BackgroundImageFix" result="shape"/>
<feColorMatrix in="SourceAlpha" type="matrix" values="0 0 0 0 0 0 0 0 0 0 0 0 0 0 0 0 0 0 127 0" result="hardAlpha"/>
<feOffset dy="-2"/>
<feGaussianBlur stdDeviation="3"/>
<feComposite in2="hardAlpha" operator="arithmetic" k2="-1" k3="1"/>
<feColorMatrix type="matrix" values="0 0 0 0 0.595833 0 0 0 0 0.0715 0 0 0 0 0 0 0 0 0.72 0"/>
<feBlend mode="normal" in2="shape" result="effect1_innerShadow_1050_376"/>
<feColorMatrix in="SourceAlpha" type="matrix" values="0 0 0 0 0 0 0 0 0 0 0 0 0 0 0 0 0 0 127 0" result="hardAlpha"/>
<feOffset dx="1" dy="4"/>
<feGaussianBlur stdDeviation="2"/>
<feComposite in2="hardAlpha" operator="arithmetic" k2="-1" k3="1"/>
<feColorMatrix type="matrix" values="0 0 0 0 1 0 0 0 0 0.825583 0 0 0 0 0.620833 0 0 0 1 0"/>
<feBlend mode="normal" in2="effect1_innerShadow_1050_376" result="effect2_innerShadow_1050_376"/>
</filter>
<filter id="filter3_d_1050_376" x="31.897" y="47.3965" width="23.1694" height="24.2148" filterUnits="userSpaceOnUse" color-interpolation-filters="sRGB">
<feFlood flood-opacity="0" result="BackgroundImageFix"/>
<feColorMatrix in="SourceAlpha" type="matrix" values="0 0 0 0 0 0 0 0 0 0 0 0 0 0 0 0 0 0 127 0" result="hardAlpha"/>
<feOffset dy="4"/>
<feGaussianBlur stdDeviation="2"/>
<feComposite in2="hardAlpha" operator="out"/>
<feColorMatrix type="matrix" values="0 0 0 0 1 0 0 0 0 0.626667 0 0 0 0 0.416667 0 0 0 0.55 0"/>
<feBlend mode="normal" in2="BackgroundImageFix" result="effect1_dropShadow_1050_376"/>
<feBlend mode="normal" in="SourceGraphic" in2="effect1_dropShadow_1050_376" result="shape"/>
</filter>
</defs>
</svg>
