<svg width="80" height="80" viewBox="0 0 80 80" fill="none" xmlns="http://www.w3.org/2000/svg">
<rect width="80" height="80" rx="24" fill="url(#paint0_radial_1519_191)" fill-opacity="0.8"/>
<path d="M46.3835 55.2243C47.9426 55.3503 49.5112 55.1517 50.9879 54.6412C51.0443 53.9539 50.9028 53.2648 50.5797 52.6537C50.2566 52.0425 49.7653 51.5344 49.1624 51.188C48.5596 50.8416 47.8699 50.6711 47.1731 50.6962C46.4764 50.7213 45.8011 50.941 45.2253 51.3299M46.3823 55.2231L46.3835 55.2609C46.3835 55.5348 46.3687 55.805 46.338 56.0716C44.1045 57.3391 41.5737 58.0041 38.9987 58C36.3279 58 33.8208 57.2988 31.6595 56.0716C31.6279 55.7899 31.6127 55.5066 31.614 55.2231M46.3835 55.2231C46.3787 53.8434 45.977 52.4934 45.2253 51.3311C44.5581 50.2961 43.6377 49.4442 42.5494 48.8543C41.461 48.2645 40.2398 47.9557 38.9987 47.9565C37.7579 47.9559 36.5369 48.2648 35.4488 48.8546C34.3606 49.4445 33.4405 50.2962 32.7734 51.3311C32.1976 50.9426 31.5224 50.7232 30.8259 50.6982C30.1294 50.6733 29.4399 50.8439 28.8373 51.1902C28.2347 51.5366 27.7434 52.0446 27.4204 52.6555C27.0974 53.2664 26.9558 53.9553 27.012 54.6424C28.4876 55.1558 30.0565 55.3537 31.6152 55.2231C31.6196 53.8435 32.0209 52.4936 32.7721 51.3311M42.6911 40.6522C42.6911 41.6208 42.3021 42.5497 41.6096 43.2346C40.9172 43.9196 39.978 44.3043 38.9987 44.3043C38.0195 44.3043 37.0803 43.9196 36.3878 43.2346C35.6954 42.5497 35.3063 41.6208 35.3063 40.6522C35.3063 39.6836 35.6954 38.7546 36.3878 38.0697C37.0803 37.3848 38.0195 37 38.9987 37C39.978 37 40.9172 37.3848 41.6096 38.0697C42.3021 38.7546 42.6911 39.6836 42.6911 40.6522ZM50.0759 44.3043C50.0759 44.664 50.0043 45.0202 49.8651 45.3526C49.7259 45.6849 49.5219 45.9868 49.2648 46.2412C49.0076 46.4955 48.7023 46.6973 48.3664 46.835C48.0304 46.9726 47.6703 47.0435 47.3066 47.0435C46.9429 47.0435 46.5828 46.9726 46.2468 46.835C45.9109 46.6973 45.6056 46.4955 45.3484 46.2412C45.0913 45.9868 44.8873 45.6849 44.7481 45.3526C44.6089 45.0202 44.5373 44.664 44.5373 44.3043C44.5373 43.5779 44.8291 42.8812 45.3484 42.3675C45.8678 41.8538 46.5721 41.5652 47.3066 41.5652C48.0411 41.5652 48.7454 41.8538 49.2648 42.3675C49.7841 42.8812 50.0759 43.5779 50.0759 44.3043ZM33.4602 44.3043C33.4602 44.664 33.3885 45.0202 33.2494 45.3526C33.1102 45.6849 32.9062 45.9868 32.649 46.2412C32.3919 46.4955 32.0866 46.6973 31.7506 46.835C31.4146 46.9726 31.0545 47.0435 30.6909 47.0435C30.3272 47.0435 29.9671 46.9726 29.6311 46.835C29.2951 46.6973 28.9898 46.4955 28.7327 46.2412C28.4755 45.9868 28.2715 45.6849 28.1324 45.3526C27.9932 45.0202 27.9216 44.664 27.9216 44.3043C27.9216 43.5779 28.2133 42.8812 28.7327 42.3675C29.252 41.8538 29.9564 41.5652 30.6909 41.5652C31.4253 41.5652 32.1297 41.8538 32.649 42.3675C33.1684 42.8812 33.4602 43.5779 33.4602 44.3043Z" stroke="#6A7080" strokeWidth="2" stroke-linecap="round" stroke-linejoin="round"/>
<path d="M21.0537 33.2715C19.1612 33.7477 17.5078 34.8986 16.404 36.5079C15.3002 38.1172 14.8221 40.0742 15.0595 42.0111C15.2968 43.9481 16.2333 45.7317 17.693 47.0269C19.1527 48.3221 21.0351 49.0397 22.9866 49.0449H24.9875" stroke="#6A7080" strokeWidth="2" stroke-linecap="round" stroke-linejoin="round"/>
<g opacity="0.16">
<path d="M21.0537 33.2705C19.1612 33.7468 17.5078 34.8976 16.404 36.5069C15.3002 38.1163 14.8221 40.0732 15.0595 42.0102C15.2968 43.9472 16.2333 45.7308 17.693 47.026C19.1527 48.3212 21.0351 49.0388 22.9866 49.0439H24.9875" fill="#6A7080"/>
<path d="M21.0537 33.2705C19.1612 33.7468 17.5078 34.8976 16.404 36.5069C15.3002 38.1163 14.8221 40.0732 15.0595 42.0102C15.2968 43.9472 16.2333 45.7308 17.693 47.026C19.1527 48.3212 21.0351 49.0388 22.9866 49.0439H24.9875L53.0005 49.0434C54.4133 49.0424 55.8098 48.7423 57.0982 48.1627C58.3865 47.5831 59.5376 46.7372 60.4755 45.6807C61.4134 44.6243 62.1169 43.3811 62.5398 42.0331C62.9626 40.6852 63.0952 39.2629 62.9287 37.86C62.7623 36.4571 62.3006 35.1054 61.5741 33.8938C60.8476 32.6821 59.8727 31.6381 58.7137 30.8304C57.5546 30.0227 56.2376 29.4697 54.8494 29.2076C53.4645 28.9462 52.0401 28.9804 50.6694 29.3078C49.9851 26.6008 48.2974 24.2552 45.9482 22.746C43.5982 21.2363 40.7621 20.6767 38.0147 21.1806C35.2674 21.6844 32.8145 23.2141 31.1531 25.4594C29.8462 27.2259 29.1061 29.3313 29.0064 31.5L21.0537 33.2705Z" fill="#6A7080"/>
</g>
<path d="M50.6702 29.3106C49.9863 26.6024 48.2983 24.2557 45.9483 22.746C43.5982 21.2363 40.7621 20.6767 38.0148 21.1806C35.2675 21.6844 32.8145 23.2141 31.1532 25.4594C29.4919 27.7048 28.7465 30.4979 29.0681 33.2724C29.0681 33.2724 29.3743 35.0372 30.0005 36.0377" stroke="#6A7080" strokeWidth="2" stroke-linecap="round" stroke-linejoin="round"/>
<path d="M53.0006 49.0426C54.4134 49.0416 55.8099 48.7414 57.0983 48.1619C58.3866 47.5823 59.5377 46.7364 60.4756 45.6799C61.4135 44.6234 62.117 43.3803 62.5398 42.0323C62.9627 40.6844 63.0953 39.2621 62.9288 37.8592C62.7624 36.4563 62.3007 35.1046 61.5742 33.893C60.8477 32.6813 59.8728 31.6373 58.7138 30.8296C57.5547 30.0219 56.2377 29.4688 54.8495 29.2068C53.4613 28.9448 52.0333 28.9797 50.6595 29.3093L47.9983 30.0337" stroke="#6A7080" strokeWidth="2" stroke-linecap="round" stroke-linejoin="round"/>
<defs>
<radialGradient id="paint0_radial_1519_191" cx="0" cy="0" r="1" gradientUnits="userSpaceOnUse" gradientTransform="rotate(45) scale(113.137)">
<stop stop-color="#29334A"/>
<stop offset="0.727753" stop-color="#29334A" stop-opacity="0"/>
</radialGradient>
</defs>
</svg>
