<svg width="18" height="14" viewBox="0 0 18 14" fill="none" xmlns="http://www.w3.org/2000/svg">
<path d="M15.2477 1.09436C14.0672 0.576402 12.8184 0.208374 11.5342 0C11.3742 0.271199 11.1873 0.635962 11.0585 0.926151C9.67387 0.730911 8.302 0.730911 6.94286 0.926151C6.81405 0.636028 6.62294 0.271199 6.4615 0C5.17604 0.20847 3.92615 0.577436 2.74513 1.09706C0.395011 4.42747 -0.242091 8.6084 0.0764248 11.81C1.63518 12.9016 3.14578 13.5647 4.63092 13.9987C5.00001 13.5227 5.32628 13.0188 5.60636 12.4921C5.07313 12.3017 4.55908 12.0671 4.07031 11.791C4.19894 11.7016 4.32453 11.6085 4.44691 11.5117C7.40861 12.8108 10.6267 12.8108 13.5531 11.5117C13.676 11.6078 13.8015 11.701 13.9296 11.791C13.4401 12.0678 12.925 12.3029 12.3907 12.4935C12.6724 13.0223 12.9981 13.5267 13.3662 14C14.8527 13.5661 16.3647 12.903 17.9235 11.81C18.2973 8.09857 17.285 3.94745 15.2477 1.09436ZM6.00988 8.90776C5.12078 8.90776 4.39164 8.12937 4.39164 7.18153C4.39164 6.23368 5.10524 5.45398 6.00988 5.45398C6.91459 5.45398 7.64366 6.2323 7.62813 7.18153C7.62953 8.12937 6.91459 8.90776 6.00988 8.90776ZM11.99 8.90776C11.1009 8.90776 10.3719 8.12937 10.3719 7.18153C10.3719 6.23368 11.0854 5.45398 11.99 5.45398C12.8947 5.45398 13.6238 6.2323 13.6083 7.18153C13.6083 8.12937 12.8947 8.90776 11.99 8.90776Z" fill="#6A7080"/>
</svg>
