<svg width="26" height="33" viewBox="0 0 26 33" fill="none" xmlns="http://www.w3.org/2000/svg">
<path d="M21.2686 15.808C22.7939 16.5707 23.9526 17.568 24.7446 18.8C25.5659 20.032 25.9766 21.4547 25.9766 23.068C25.9766 24.9747 25.4339 26.6467 24.3486 28.084C23.2632 29.492 21.7379 30.592 19.7726 31.384C17.8072 32.1467 15.5339 32.528 12.9526 32.528C10.3712 32.528 8.0979 32.1467 6.13256 31.384C4.19656 30.592 2.6859 29.492 1.60056 28.084C0.544563 26.6467 0.0165625 24.9747 0.0165625 23.068C0.0165625 21.4547 0.412563 20.032 1.20456 18.8C2.0259 17.568 3.18456 16.5707 4.68056 15.808C3.53656 15.104 2.65656 14.224 2.04056 13.168C1.42456 12.0827 1.11656 10.8507 1.11656 9.472C1.11656 7.68267 1.61523 6.128 2.61256 4.808C3.6099 3.488 5.00323 2.476 6.79256 1.772C8.5819 1.03867 10.6352 0.671999 12.9526 0.671999C15.2992 0.671999 17.3672 1.03867 19.1566 1.772C20.9752 2.476 22.3832 3.488 23.3806 4.808C24.3779 6.128 24.8766 7.68267 24.8766 9.472C24.8766 10.8507 24.5686 12.0827 23.9526 13.168C23.3366 14.224 22.4419 15.104 21.2686 15.808ZM12.9526 5.908C11.5152 5.908 10.3566 6.26 9.47656 6.964C8.6259 7.63867 8.20056 8.57733 8.20056 9.78C8.20056 10.9533 8.6259 11.8773 9.47656 12.552C10.3272 13.2267 11.4859 13.564 12.9526 13.564C14.4192 13.564 15.5926 13.2267 16.4726 12.552C17.3526 11.8773 17.7926 10.9533 17.7926 9.78C17.7926 8.57733 17.3526 7.63867 16.4726 6.964C15.5926 6.26 14.4192 5.908 12.9526 5.908ZM12.9526 27.292C14.7419 27.292 16.1499 26.896 17.1766 26.104C18.2326 25.2827 18.7606 24.1973 18.7606 22.848C18.7606 21.4987 18.2326 20.428 17.1766 19.636C16.1499 18.844 14.7419 18.448 12.9526 18.448C11.1926 18.448 9.79923 18.844 8.77256 19.636C7.7459 20.428 7.23256 21.4987 7.23256 22.848C7.23256 24.2267 7.7459 25.312 8.77256 26.104C9.79923 26.896 11.1926 27.292 12.9526 27.292Z" fill="#D6DCEC"/>
</svg>
