<svg width="64" height="64" viewBox="0 0 64 64" fill="none" xmlns="http://www.w3.org/2000/svg">
<rect opacity="0.16" width="64" height="64" rx="24" fill="#5A88FF"/>
<path d="M30.5672 20C30.0471 20 29.7038 20.3379 29.4792 20.735L19.1362 38.9439C19 39.0909 19 39.383 19 39.6789C19 40.706 19.6812 41 20.2243 41H40.7757C41.4551 41 42 40.706 42 39.6789C42 39.3849 42 39.2379 41.8638 38.9439L31.6553 20.735C31.4359 20.3379 31.0113 20 30.569 20H30.5672Z" fill="#B5EC5B"/>
<g filter="url(#filter0_b_1519_146)">
<path d="M33.8498 21.926C31.5164 21.926 29.6995 24.584 28.9918 25.4314C28.8512 25.6052 28.7767 25.8237 28.7814 26.0478V34.5223C28.7736 34.6864 28.8134 34.8492 28.8958 34.991C28.9782 35.1327 29.0998 35.2473 29.2457 35.3208C29.3916 35.3942 29.5555 35.4234 29.7176 35.4048C29.8796 35.3861 30.0328 35.3204 30.1585 35.2157C31.0507 34.0093 32.375 33.2009 33.8498 32.9623C36.5465 32.9623 37.5793 35.4083 40.3908 35.4083C42.2934 35.2204 44.1041 34.4924 45.6121 33.3089C45.732 33.2203 45.8292 33.1042 45.8957 32.9702C45.9622 32.8363 45.9961 32.6883 45.9946 32.5385V22.7928C46.0115 22.6436 45.9887 22.4927 45.9286 22.3554C45.8686 22.218 45.7734 22.0992 45.6528 22.011C45.5322 21.9229 45.3905 21.8686 45.2422 21.8536C45.0939 21.8387 44.9444 21.8637 44.8088 21.926C43.5058 22.9299 41.9962 23.6275 40.3908 23.9676C37.5793 24.0062 36.6612 21.926 33.8498 21.926ZM25.9126 23.8521C25.4053 23.8521 24.9189 23.6492 24.5602 23.288C24.2015 22.9268 24 22.4369 24 21.926C24 21.4152 24.2015 20.9253 24.5602 20.5641C24.9189 20.2029 25.4053 20 25.9126 20C26.4198 20 26.9063 20.2029 27.265 20.5641C27.6236 20.9253 27.8251 21.4152 27.8251 21.926C27.8251 22.4369 27.6236 22.9268 27.265 23.288C26.9063 23.6492 26.4198 23.8521 25.9126 23.8521ZM26.8689 25.7781V44.037C26.8689 44.2924 26.7681 44.5373 26.5888 44.7179C26.4094 44.8985 26.1662 45 25.9126 45C25.659 45 25.4157 44.8985 25.2364 44.7179C25.057 44.5373 24.9563 44.2924 24.9563 44.037V25.7781C24.9563 25.5227 25.057 25.2778 25.2364 25.0972C25.4157 24.9166 25.659 24.8151 25.9126 24.8151C26.1662 24.8151 26.4094 24.9166 26.5888 25.0972C26.7681 25.2778 26.8689 25.5227 26.8689 25.7781V25.7781Z" fill="#5A88FF" fill-opacity="0.8"/>
</g>
<defs>
<filter id="filter0_b_1519_146" x="20" y="16" width="30" height="33" filterUnits="userSpaceOnUse" color-interpolation-filters="sRGB">
<feFlood flood-opacity="0" result="BackgroundImageFix"/>
<feGaussianBlur in="BackgroundImageFix" stdDeviation="2"/>
<feComposite in2="SourceAlpha" operator="in" result="effect1_backgroundBlur_1519_146"/>
<feBlend mode="normal" in="SourceGraphic" in2="effect1_backgroundBlur_1519_146" result="shape"/>
</filter>
</defs>
</svg>
