<svg width="80" height="122" viewBox="0 0 80 122" fill="none" xmlns="http://www.w3.org/2000/svg">
<g style="mix-blend-mode:multiply" opacity="0.4" filter="url(#filter0_f_1105_4)">
<path d="M62.4486 75.55L48.0591 73.4057L41.6267 60.0344C41.451 59.6683 41.1619 59.3719 40.8049 59.1918C39.9094 58.7385 38.8213 59.1162 38.3736 60.0344L31.9411 73.4057L17.5516 75.55C17.1549 75.6082 16.7922 75.7999 16.5145 76.0905C16.1788 76.4443 15.9938 76.9203 16.0002 77.4139C16.0065 77.9075 16.2038 78.3783 16.5485 78.7229L26.9595 89.1306L24.4998 103.827C24.4422 104.169 24.4791 104.52 24.6063 104.842C24.7336 105.163 24.9462 105.442 25.22 105.646C25.4938 105.849 25.8178 105.971 26.1553 105.995C26.4928 106.02 26.8303 105.947 27.1295 105.785L40.0001 98.8467L52.8707 105.785C53.2221 105.977 53.6302 106.041 54.0212 105.971C55.0073 105.797 55.6704 104.838 55.5004 103.827L53.0407 89.1306L63.4517 78.7229C63.7351 78.4382 63.9221 78.0662 63.9788 77.6595C64.1318 76.6425 63.4404 75.7011 62.4486 75.55Z" fill="#FFDB5B"/>
</g>
<g opacity="0.64" filter="url(#filter1_f_1105_4)">
<path d="M62.4486 32.55L48.0591 30.4057L41.6267 17.0344C41.451 16.6683 41.1619 16.3719 40.8049 16.1918C39.9094 15.7385 38.8213 16.1162 38.3736 17.0344L31.9411 30.4057L17.5516 32.55C17.1549 32.6082 16.7922 32.7999 16.5145 33.0905C16.1788 33.4443 15.9938 33.9203 16.0002 34.4139C16.0065 34.9075 16.2038 35.3783 16.5485 35.7229L26.9595 46.1306L24.4998 60.8269C24.4422 61.1687 24.4791 61.5203 24.6063 61.8418C24.7336 62.1632 24.9462 62.4417 25.22 62.6456C25.4938 62.8495 25.8178 62.9706 26.1553 62.9953C26.4928 63.02 26.8303 62.9472 27.1295 62.7852L40.0001 55.8467L52.8707 62.7852C53.2221 62.977 53.6302 63.0409 54.0212 62.9712C55.0073 62.7968 55.6704 61.838 55.5004 60.8269L53.0407 46.1306L63.4517 35.7229C63.7351 35.4382 63.9221 35.0662 63.9788 34.6595C64.1318 33.6425 63.4404 32.7011 62.4486 32.55Z" fill="#FFDB5B"/>
</g>
<path opacity="0.24" d="M66.19 47.0149L49.4023 44.5513L41.8978 29.1885C41.6928 28.7678 41.3556 28.4273 40.939 28.2204C39.8943 27.6996 38.6248 28.1336 38.1025 29.1885L30.598 44.5513L13.8102 47.0149C13.3474 47.0817 12.9242 47.302 12.6003 47.6359C12.2086 48.0424 11.9927 48.5893 12.0002 49.1564C12.0076 49.7235 12.2377 50.2645 12.6399 50.6604L24.7861 62.6181L21.9165 79.5032C21.8492 79.896 21.8922 80.2999 22.0407 80.6693C22.1892 81.0386 22.4372 81.3586 22.7567 81.5928C23.0761 81.8271 23.4541 81.9662 23.8478 81.9946C24.2416 82.0229 24.6353 81.9393 24.9844 81.7532L40.0001 73.7814L55.0158 81.7532C55.4258 81.9735 55.9019 82.047 56.3581 81.9669C57.5086 81.7666 58.2821 80.6649 58.0838 79.5032L55.2142 62.6181L67.3603 50.6604C67.6909 50.3332 67.9091 49.9059 67.9752 49.4385C68.1538 48.2701 67.3471 47.1885 66.19 47.0149Z" fill="#FFDB5B"/>
<path opacity="0.48" d="M66.19 51.0149L49.4023 48.5513L41.8978 33.1885C41.6928 32.7678 41.3556 32.4273 40.939 32.2204C39.8943 31.6996 38.6248 32.1336 38.1025 33.1885L30.598 48.5513L13.8102 51.0149C13.3474 51.0817 12.9242 51.302 12.6003 51.6359C12.2086 52.0424 11.9927 52.5893 12.0002 53.1564C12.0076 53.7235 12.2377 54.2645 12.6399 54.6604L24.7861 66.6181L21.9165 83.5032C21.8492 83.896 21.8922 84.2999 22.0407 84.6693C22.1892 85.0386 22.4372 85.3586 22.7567 85.5928C23.0761 85.8271 23.4541 85.9662 23.8478 85.9946C24.2416 86.0229 24.6353 85.9393 24.9844 85.7532L40.0001 77.7814L55.0158 85.7532C55.4258 85.9735 55.9019 86.047 56.3581 85.9669C57.5086 85.7666 58.2821 84.6649 58.0838 83.5032L55.2142 66.6181L67.3603 54.6604C67.6909 54.3332 67.9091 53.9059 67.9752 53.4385C68.1538 52.2701 67.3471 51.1885 66.19 51.0149Z" fill="#FFDB5B"/>
<g filter="url(#filter2_ii_1105_4)">
<path d="M66.19 55.0149L49.4023 52.5513L41.8978 37.1885C41.6928 36.7678 41.3556 36.4273 40.939 36.2204C39.8943 35.6996 38.6248 36.1336 38.1025 37.1885L30.598 52.5513L13.8102 55.0149C13.3474 55.0817 12.9242 55.302 12.6003 55.6359C12.2086 56.0424 11.9927 56.5893 12.0002 57.1564C12.0076 57.7235 12.2377 58.2645 12.6399 58.6604L24.7861 70.6181L21.9165 87.5032C21.8492 87.896 21.8922 88.2999 22.0407 88.6693C22.1892 89.0386 22.4372 89.3586 22.7567 89.5928C23.0761 89.8271 23.4541 89.9662 23.8478 89.9946C24.2416 90.0229 24.6353 89.9393 24.9844 89.7532L40.0001 81.7814L55.0158 89.7532C55.4258 89.9735 55.9019 90.047 56.3581 89.9669C57.5086 89.7666 58.2821 88.6649 58.0838 87.5032L55.2142 70.6181L67.3603 58.6604C67.6909 58.3332 67.9091 57.9059 67.9752 57.4385C68.1538 56.2701 67.3471 55.1885 66.19 55.0149Z" fill="#FFD74A"/>
</g>
<g filter="url(#filter3_d_1105_4)">
<path d="M42.8926 58.0297V73.4297H38.5366V61.3957H35.6766V58.0297H42.8926Z" fill="white"/>
</g>
<defs>
<filter id="filter0_f_1105_4" x="0" y="43" width="80" height="79" filterUnits="userSpaceOnUse" color-interpolation-filters="sRGB">
<feFlood flood-opacity="0" result="BackgroundImageFix"/>
<feBlend mode="normal" in="SourceGraphic" in2="BackgroundImageFix" result="shape"/>
<feGaussianBlur stdDeviation="8" result="effect1_foregroundBlur_1105_4"/>
</filter>
<filter id="filter1_f_1105_4" x="0" y="0" width="80" height="79" filterUnits="userSpaceOnUse" color-interpolation-filters="sRGB">
<feFlood flood-opacity="0" result="BackgroundImageFix"/>
<feBlend mode="normal" in="SourceGraphic" in2="BackgroundImageFix" result="shape"/>
<feGaussianBlur stdDeviation="8" result="effect1_foregroundBlur_1105_4"/>
</filter>
<filter id="filter2_ii_1105_4" x="12" y="34" width="57" height="60" filterUnits="userSpaceOnUse" color-interpolation-filters="sRGB">
<feFlood flood-opacity="0" result="BackgroundImageFix"/>
<feBlend mode="normal" in="SourceGraphic" in2="BackgroundImageFix" result="shape"/>
<feColorMatrix in="SourceAlpha" type="matrix" values="0 0 0 0 0 0 0 0 0 0 0 0 0 0 0 0 0 0 127 0" result="hardAlpha"/>
<feOffset dy="-2"/>
<feGaussianBlur stdDeviation="3"/>
<feComposite in2="hardAlpha" operator="arithmetic" k2="-1" k3="1"/>
<feColorMatrix type="matrix" values="0 0 0 0 1 0 0 0 0 0.1125 0 0 0 0 0.1125 0 0 0 0.54 0"/>
<feBlend mode="normal" in2="shape" result="effect1_innerShadow_1105_4"/>
<feColorMatrix in="SourceAlpha" type="matrix" values="0 0 0 0 0 0 0 0 0 0 0 0 0 0 0 0 0 0 127 0" result="hardAlpha"/>
<feOffset dx="1" dy="4"/>
<feGaussianBlur stdDeviation="2"/>
<feComposite in2="hardAlpha" operator="arithmetic" k2="-1" k3="1"/>
<feColorMatrix type="matrix" values="0 0 0 0 1 0 0 0 0 0.976167 0 0 0 0 0.891667 0 0 0 1 0"/>
<feBlend mode="normal" in2="effect1_innerShadow_1105_4" result="effect2_innerShadow_1105_4"/>
</filter>
<filter id="filter3_d_1105_4" x="31.6765" y="58.0293" width="15.2161" height="23.4004" filterUnits="userSpaceOnUse" color-interpolation-filters="sRGB">
<feFlood flood-opacity="0" result="BackgroundImageFix"/>
<feColorMatrix in="SourceAlpha" type="matrix" values="0 0 0 0 0 0 0 0 0 0 0 0 0 0 0 0 0 0 127 0" result="hardAlpha"/>
<feOffset dy="4"/>
<feGaussianBlur stdDeviation="2"/>
<feComposite in2="hardAlpha" operator="out"/>
<feColorMatrix type="matrix" values="0 0 0 0 1 0 0 0 0 0.626667 0 0 0 0 0.416667 0 0 0 0.55 0"/>
<feBlend mode="normal" in2="BackgroundImageFix" result="effect1_dropShadow_1105_4"/>
<feBlend mode="normal" in="SourceGraphic" in2="effect1_dropShadow_1105_4" result="shape"/>
</filter>
</defs>
</svg>
