<svg width="24" height="16" viewBox="0 0 24 16" fill="none" xmlns="http://www.w3.org/2000/svg">
<path d="M24 5.49932V12.1236C23.9998 12.4242 23.8691 12.7178 23.625 12.9664C23.3808 13.215 23.0344 13.407 22.6307 13.5176L13.964 15.8947C13.6354 15.9848 13.2799 16.0178 12.9286 15.9909C12.5773 15.964 12.2408 15.8781 11.9485 15.7405C11.6563 15.6029 11.417 15.4179 11.2517 15.2016C11.0863 14.9854 10.9999 14.7444 11 14.4997V7.87642C10.9999 7.57564 11.1305 7.28179 11.3746 7.03302C11.6188 6.78425 11.9654 6.59205 12.3693 6.48136L21.036 4.10527C21.3645 4.01525 21.7199 3.98222 22.071 4.00906C22.4222 4.03589 22.7586 4.12178 23.0509 4.25924C23.3431 4.3967 23.5824 4.58155 23.7478 4.79769C23.9132 5.01384 23.9998 5.25471 24 5.49932Z" fill="#579AFF"/>
<path d="M16.1727 2.00908C15.8399 1.98219 15.5031 2.01522 15.1917 2.10529L6.72987 4.55492C6.21956 4.70253 5.78175 4.95886 5.47327 5.29063C5.1648 5.62239 4.9999 6.01427 5 6.4154V12.5C5.00008 12.7448 5.0821 12.9858 5.23892 13.2021C5.39573 13.4184 5.62258 13.6034 5.89966 13.7409C6.17675 13.8784 6.49567 13.9643 6.82859 13.991C7.16151 14.0178 7.49833 13.9846 7.80966 13.8943L9.10569 13.5192V7.53868C9.10566 7.38509 9.12981 7.23285 9.17696 7.08482C9.33562 6.58663 9.80821 6.2797 10.2594 6.01553C10.642 5.79151 11.051 5.61583 11.4769 5.49251L18 3.60367V3.50065C18.0001 3.2559 17.9182 3.01485 17.7615 2.79853C17.6049 2.58221 17.3782 2.39718 17.1013 2.25958C16.8243 2.12197 16.5056 2.03598 16.1727 2.00908Z" fill="#44C6E2"/>
<path d="M10.978 0.105621C11.3027 0.0182787 11.6532 -0.0156373 12.0009 0.00665058C12.3487 0.0289385 12.6837 0.106796 12.9785 0.233847C13.2733 0.360898 13.5196 0.533529 13.6971 0.7376C13.8747 0.94167 13.9785 1.17138 14 1.4079L5.7958 3.61182C5.29475 3.74642 4.81136 3.93976 4.35568 4.18781C3.80196 4.48923 3.20833 4.83786 3.02036 5.43963C2.97262 5.59248 2.94823 5.74905 2.9483 5.90689V11.9142C2.61469 11.9942 2.25764 12.0188 1.90715 11.9857C1.55666 11.9527 1.22296 11.8631 0.9341 11.7245C0.645236 11.5858 0.409636 11.4021 0.247094 11.1889C0.0845523 10.9756 -0.000185234 10.739 3.0403e-07 10.4989V4.75563C-0.000128425 4.25425 0.221889 3.76442 0.637231 3.34973C1.05257 2.93503 1.64206 2.61464 2.32916 2.43013L10.978 0.105621Z" fill="#8B47FB"/>
</svg>
