<svg width="217" height="228" viewBox="0 0 217 228" fill="none" xmlns="http://www.w3.org/2000/svg">
<path opacity="0.24" d="M44.8201 72.2231L75.2468 97.4783L114.225 90.82L88.9695 121.247L95.6279 160.225L65.2011 134.969L26.2232 141.628L51.4784 111.201L44.8201 72.2231Z" fill="url(#paint0_linear_1104_2)"/>
<path opacity="0.24" d="M133.229 154.406L128.929 179.579L145.239 199.229L120.067 194.929L100.416 211.24L104.717 186.067L88.4061 166.417L113.579 170.717L133.229 154.406Z" fill="url(#paint1_linear_1104_2)"/>
<path opacity="0.24" d="M163.785 14.712L167.727 57.1536L202.512 81.7881L160.07 85.7299L135.436 120.515L131.494 78.0729L96.7092 53.4384L139.151 49.4966L163.785 14.712Z" fill="url(#paint2_linear_1104_2)"/>
<defs>
<linearGradient id="paint0_linear_1104_2" x1="44.8201" y1="72.2231" x2="95.6279" y2="160.225" gradientUnits="userSpaceOnUse">
<stop stop-color="#1E93FF"/>
<stop offset="1" stop-color="#1C2438" stop-opacity="0"/>
</linearGradient>
<linearGradient id="paint1_linear_1104_2" x1="133.229" y1="154.406" x2="100.416" y2="211.24" gradientUnits="userSpaceOnUse">
<stop stop-color="#1E93FF"/>
<stop offset="1" stop-color="#1C2438" stop-opacity="0"/>
</linearGradient>
<linearGradient id="paint2_linear_1104_2" x1="163.785" y1="14.712" x2="135.436" y2="120.515" gradientUnits="userSpaceOnUse">
<stop stop-color="#60BCFF"/>
<stop offset="1" stop-color="#1C2438" stop-opacity="0"/>
</linearGradient>
</defs>
</svg>
