<svg width="358" height="346" viewBox="0 0 358 346" fill="none" xmlns="http://www.w3.org/2000/svg">
<rect width="358" height="346" rx="24" fill="#1C2438"/>
<mask id="mask0_1294_336" style="mask-type:alpha" maskUnits="userSpaceOnUse" x="0" y="0" width="358" height="346">
<rect width="358" height="346" rx="24" fill="#1C2438"/>
</mask>
<g mask="url(#mask0_1294_336)">
<g filter="url(#filter0_f_1294_336)">
<ellipse cx="-30.5" cy="133.5" rx="136.5" ry="82.5" fill="#0935D2"/>
</g>
<g filter="url(#filter1_f_1294_336)">
<ellipse cx="179.5" cy="23" rx="117.5" ry="71" fill="#00F7D9"/>
</g>
<g filter="url(#filter2_f_1294_336)">
<ellipse cx="388.5" cy="133.5" rx="136.5" ry="82.5" fill="#A710BF"/>
</g>
<path opacity="0.24" d="M25.0008 65.686L55.4275 90.9412L94.4054 84.2829L69.1502 114.71L75.8085 153.688L45.3818 128.432L6.40387 135.091L31.6591 104.664L25.0008 65.686Z" fill="url(#paint0_linear_1294_336)"/>
<path opacity="0.24" d="M113.409 147.869L109.109 173.042L125.419 192.692L100.246 188.392L80.5961 204.703L84.8962 179.53L68.5858 159.88L93.7586 164.18L113.409 147.869Z" fill="url(#paint1_linear_1294_336)"/>
<path opacity="0.32" d="M335.876 63.0872L330.044 97.228L352.165 123.879L318.025 118.047L291.374 140.168L297.206 106.027L275.085 79.3763L309.225 85.2083L335.876 63.0872Z" fill="url(#paint2_linear_1294_336)"/>
<path opacity="0.24" d="M143.964 8.17485L147.906 50.6165L182.69 75.251L140.249 79.1928L115.614 113.977L111.672 71.5358L76.8876 46.9013L119.329 42.9595L143.964 8.17485Z" fill="url(#paint3_linear_1294_336)"/>
<path opacity="0.32" d="M213.07 13.1487L235.92 45.4139L275.287 49.0702L243.022 71.9204L239.366 111.288L216.516 79.0227L177.148 75.3665L209.413 52.5163L213.07 13.1487Z" fill="url(#paint4_linear_1294_336)"/>
<path opacity="0.32" d="M282.457 127.237L285.349 158.378L310.872 176.453L279.731 179.346L261.655 204.869L258.763 173.727L233.24 155.652L264.381 152.76L282.457 127.237Z" fill="url(#paint5_linear_1294_336)"/>
</g>
<defs>
<filter id="filter0_f_1294_336" x="-387" y="-169" width="713" height="605" filterUnits="userSpaceOnUse" color-interpolation-filters="sRGB">
<feFlood flood-opacity="0" result="BackgroundImageFix"/>
<feBlend mode="normal" in="SourceGraphic" in2="BackgroundImageFix" result="shape"/>
<feGaussianBlur stdDeviation="110" result="effect1_foregroundBlur_1294_336"/>
</filter>
<filter id="filter1_f_1294_336" x="-258" y="-368" width="875" height="782" filterUnits="userSpaceOnUse" color-interpolation-filters="sRGB">
<feFlood flood-opacity="0" result="BackgroundImageFix"/>
<feBlend mode="normal" in="SourceGraphic" in2="BackgroundImageFix" result="shape"/>
<feGaussianBlur stdDeviation="160" result="effect1_foregroundBlur_1294_336"/>
</filter>
<filter id="filter2_f_1294_336" x="32" y="-169" width="713" height="605" filterUnits="userSpaceOnUse" color-interpolation-filters="sRGB">
<feFlood flood-opacity="0" result="BackgroundImageFix"/>
<feBlend mode="normal" in="SourceGraphic" in2="BackgroundImageFix" result="shape"/>
<feGaussianBlur stdDeviation="110" result="effect1_foregroundBlur_1294_336"/>
</filter>
<linearGradient id="paint0_linear_1294_336" x1="25.0008" y1="65.686" x2="75.8085" y2="153.688" gradientUnits="userSpaceOnUse">
<stop stop-color="#1E93FF"/>
<stop offset="1" stop-color="#1C2438" stop-opacity="0"/>
</linearGradient>
<linearGradient id="paint1_linear_1294_336" x1="113.409" y1="147.869" x2="80.5961" y2="204.703" gradientUnits="userSpaceOnUse">
<stop stop-color="#1E93FF"/>
<stop offset="1" stop-color="#1C2438" stop-opacity="0"/>
</linearGradient>
<linearGradient id="paint2_linear_1294_336" x1="335.876" y1="63.0872" x2="291.374" y2="140.168" gradientUnits="userSpaceOnUse">
<stop stop-color="#C41EFF"/>
<stop offset="1" stop-color="#1C2438" stop-opacity="0"/>
</linearGradient>
<linearGradient id="paint3_linear_1294_336" x1="143.964" y1="8.17485" x2="115.614" y2="113.977" gradientUnits="userSpaceOnUse">
<stop stop-color="#60BCFF"/>
<stop offset="1" stop-color="#1C2438" stop-opacity="0"/>
</linearGradient>
<linearGradient id="paint4_linear_1294_336" x1="213.07" y1="13.1487" x2="239.366" y2="111.288" gradientUnits="userSpaceOnUse">
<stop stop-color="#DA62BF"/>
<stop offset="1" stop-color="#1C2438" stop-opacity="0"/>
</linearGradient>
<linearGradient id="paint5_linear_1294_336" x1="282.457" y1="127.237" x2="261.655" y2="204.869" gradientUnits="userSpaceOnUse">
<stop stop-color="#A35BFF"/>
<stop offset="1" stop-color="#1C2438" stop-opacity="0"/>
</linearGradient>
</defs>
</svg>
