<svg width="80" height="80" viewBox="0 0 80 80" fill="none" xmlns="http://www.w3.org/2000/svg">
<rect width="80" height="80" rx="24" fill="url(#paint0_radial_1519_166)" fill-opacity="0.8"/>
<path opacity="0.16" d="M24.25 27H55.75C56.3467 27 56.919 27.2283 57.341 27.6346C57.7629 28.0409 58 28.592 58 29.1667V40.4008V45C58 49.4183 54.4183 53 50 53H41.125H24.25C23.6533 53 23.081 52.7717 22.659 52.3654C22.2371 51.9591 22 51.408 22 50.8333V29.1667C22 28.592 22.2371 28.0409 22.659 27.6346C23.081 27.2283 23.6533 27 24.25 27Z" fill="#6A7080"/>
<path d="M55.75 27H24.25C23.6533 27 23.081 27.2283 22.659 27.6346C22.2371 28.0409 22 28.592 22 29.1667V50.8333C22 51.408 22.2371 51.9591 22.659 52.3654C23.081 52.7717 23.6533 53 24.25 53H41.125L41.7663 52.2417L42.8125 51.0067L42.7113 50.8333H24.25V29.1667H55.75V38.44C56.6047 38.9728 57.3644 39.6349 58 40.4008V29.1667C58 28.592 57.7629 28.0409 57.341 27.6346C56.919 27.2283 56.3467 27 55.75 27Z" fill="#6A7080"/>
<path d="M28 34C28 33.4477 28.4477 33 29 33H46C46.5523 33 47 33.4477 47 34C47 34.5523 46.5523 35 46 35H29C28.4477 35 28 34.5523 28 34Z" fill="#6A7080"/>
<path d="M28 38C28 37.4477 28.4477 37 29 37H39C39.5523 37 40 37.4477 40 38C40 38.5523 39.5523 39 39 39H29C28.4477 39 28 38.5523 28 38Z" fill="#6A7080"/>
<path d="M28 46C28 45.4477 28.4477 45 29 45H38C38.5523 45 39 45.4477 39 46C39 46.5523 38.5523 47 38 47H29C28.4477 47 28 46.5523 28 46Z" fill="#6A7080"/>
<path d="M50.5059 39.0002C49.0075 38.9883 47.5405 39.4313 46.2964 40.2713C45.0523 41.1114 44.0891 42.3095 43.5326 43.709C42.9761 45.1084 42.8523 46.6443 43.1772 48.1157C43.5022 49.5871 44.2608 50.9257 45.354 51.9565L43.0826 54.748L44.1363 59L48.4217 53.7468C49.7782 54.1503 51.2218 54.1503 52.5783 53.7468L56.8637 59L57.9175 54.748L55.646 51.9565C56.7392 50.9257 57.4978 49.5871 57.8228 48.1157C58.1477 46.6443 58.0239 45.1084 57.4674 43.709C56.9109 42.3095 55.9477 41.1114 54.7036 40.2713C53.4595 39.4313 51.9925 38.9883 50.4941 39.0002H50.5059ZM50.5059 51.5796C49.5109 51.5657 48.5422 51.2561 47.7216 50.6899C46.901 50.1237 46.2651 49.3261 45.8939 48.3973C45.5227 47.4686 45.4328 46.4501 45.6353 45.4701C45.8379 44.4901 46.324 43.5921 47.0325 42.8892C47.741 42.1863 48.6402 41.7098 49.6171 41.5196C50.5941 41.3294 51.6051 41.4339 52.5232 41.8202C53.4412 42.2064 54.2252 42.857 54.7767 43.6902C55.3282 44.5234 55.6225 45.5021 55.6225 46.5031C55.6102 47.8579 55.0649 49.1526 54.106 50.1039C53.1471 51.0553 51.8526 51.5859 50.5059 51.5796Z" fill="#6A7080"/>
<defs>
<radialGradient id="paint0_radial_1519_166" cx="0" cy="0" r="1" gradientUnits="userSpaceOnUse" gradientTransform="rotate(45) scale(113.137)">
<stop stop-color="#29334A"/>
<stop offset="0.727753" stop-color="#29334A" stop-opacity="0"/>
</radialGradient>
</defs>
</svg>
