<?xml version="1.0" encoding="UTF-8"?><svg xmlns="http://www.w3.org/2000/svg" xmlns:xlink="http://www.w3.org/1999/xlink" viewBox="0 0 1280 375.32"><defs><style>.e{fill:#fff;}.f{fill:url(#c);}.g{isolation:isolate;}.h{fill:#585efc;}.h,.i,.j{mix-blend-mode:multiply;opacity:.18;}.k{fill:url(#b);}.l{fill:url(#d);}.i{fill:#6854fe;}.j{fill:#34a4eb;}</style><linearGradient id="b" x1="23.23" y1="212.86" x2="217.95" y2="29.64" gradientTransform="matrix(1, 0, 0, 1, 0, 0)" gradientUnits="userSpaceOnUse"><stop offset="0" stop-color="#5c57fe"/><stop offset="1" stop-color="#3499ee"/></linearGradient><linearGradient id="c" x1="246.09" y1="292.44" x2="0" y2="193.55" gradientTransform="matrix(1, 0, 0, 1, 0, 0)" gradientUnits="userSpaceOnUse"><stop offset="0" stop-color="#3499ee"/><stop offset="1" stop-color="#38fbd1"/></linearGradient><linearGradient id="d" x1="238.06" y1="58.77" x2="276.54" y2="322.06" gradientTransform="matrix(1, 0, 0, 1, 0, 0)" gradientUnits="userSpaceOnUse"><stop offset="0" stop-color="#5c57fe"/><stop offset="1" stop-color="#c441fd"/></linearGradient></defs><g class="g"><g id="a"><g><g><path class="k" d="M314.23,76.8c-91.17-50.49-146.67,3.97-149.04,6.36-.05,.04-.08,.08-.08,.08l-74.76,74.76c-10.1,10.09-15.39,23.16-15.86,36.38-.54,14.55,4.75,29.27,15.86,40.37,7.55,7.56,16.78,12.42,26.49,14.59C84.98,244.41,0,221.51,0,117.24v-.14c0-16.63,8.86-31.99,23.26-40.29L145.48,6.23c14.4-8.31,32.13-8.31,46.53,0l122.22,70.57Z"/><path class="f" d="M192.01,369.08c-14.4,8.31-32.13,8.31-46.53,0L23.26,298.51c-14.4-8.31-23.26-23.67-23.26-40.29V117.24c0,104.27,84.98,127.18,116.84,132.1,3.9,.87,7.89,1.31,11.88,1.31,8.17,0,16.35-1.84,23.85-5.52,3.53-1.73,7.57,1.08,7.32,4.99-1,15.6-6.18,28.44-10.03,36.03-1.72,3.41,.76,7.44,4.58,7.44h28.59c3.82,0,6.31-4.03,4.58-7.44-3.85-7.58-9.03-20.42-10.02-36.01-.26-3.93,3.79-6.73,7.32-5,7.5,3.68,15.66,5.52,23.84,5.52,4.95,0,9.89-.68,14.7-2.03,8.68-2.42,16.86-7.05,23.67-13.87,14.61-14.6,19.16-35.48,13.63-53.97,12.03,31.01,16.35,93.75-68.75,188.31Z"/><path class="l" d="M337.5,117.1v141.12c0,16.63-8.87,31.98-23.27,40.29l-122.22,70.57c85.1-94.56,80.78-157.3,68.75-188.31-2.43-8.12-6.8-15.79-13.13-22.26-.32-.34-.49-.52-.49-.52l-74.76-74.76c-.11-.11-.22-.2-.32-.3-1.99-1.69-4.96-1.6-6.86,.23,2.37-2.39,57.87-56.84,149.04-6.36,14.4,8.3,23.27,23.67,23.27,40.29Z"/><path class="h" d="M116.84,249.34C84.98,244.41,0,221.51,0,117.24v-.14c0-7.32,1.72-14.41,4.87-20.74,6.19,55.46,38.88,84,69.61,98.65-.38,14.35,4.93,28.81,15.87,39.75,7.55,7.56,16.78,12.42,26.49,14.59Z"/><path class="h" d="M116.84,249.34C84.98,244.41,0,221.51,0,117.24v-.14c0-4.83,.75-9.56,2.17-14.04,1.7,69.77,42.32,101.81,77.46,116.49,2.59,5.51,6.17,10.66,10.72,15.21,7.55,7.56,16.78,12.42,26.49,14.59Z"/><path class="i" d="M322.79,83.15c-67.81-18.89-108.05,20.6-110.07,22.63-.05,.04-.08,.08-.08,.08l-8.83,8.83-15.81-15.81-15.64-15.64c-.11-.11-.22-.2-.32-.3-1.63-1.39-3.93-1.58-5.74-.59-.4,.22-.77,.48-1.12,.82,.14-.14,.47-.47,.99-.95,7.52-7,54.64-46.48,129.79-14.37,5.91,2.53,12,5.5,18.26,8.96,3.13,1.8,5.99,3.94,8.56,6.34Z"/><path class="i" d="M295.97,67.84c-62.72-13.56-99.72,22.77-101.65,24.7-.05,.04-.08,.08-.08,.08l-6.24,6.25-15.64-15.64c-.11-.11-.22-.2-.32-.3-1.63-1.39-3.93-1.58-5.74-.59l-.13-.13c7.52-7,54.64-46.48,129.79-14.37Z"/><path class="j" d="M192.01,369.08c-4.75,2.75-9.89,4.59-15.14,5.52,36.19-56.54,37.47-97.85,30.89-123.96,.33,.01,.68,.01,1.01,.01,4.95,0,9.89-.68,14.7-2.03,8.68-2.42,16.86-7.05,23.67-13.87,14.61-14.6,19.16-35.48,13.63-53.97,12.03,31.01,16.35,93.75-68.75,188.31Z"/><path class="j" d="M267.1,224.1c-1.84,32.73-17.41,77.64-66.13,134.75,31.07-49.76,34.95-87.49,30.63-113.23,5.23-2.42,10.14-5.72,14.53-9.9,.33-.31,.67-.63,1-.97,14.61-14.6,19.16-35.48,13.63-53.97,4.14,10.68,7.37,25.12,6.34,43.33Z"/></g><g><path class="e" d="M444.52,197.51h-6.69v65.71h-33.89V102.99h65.47c34.35,0,56.02,19.83,56.02,47.26,0,24.44-17.29,42.65-44.96,46.57l47.72,66.4h-38.04l-45.65-65.71Zm-6.69-24.21h30.66c14.98,0,23.51-7.84,23.51-20.06s-8.53-20.29-23.51-20.29h-30.66v40.35Z"/><path class="e" d="M663.07,141.72v121.5h-31.58v-13.37c-8.76,10.37-21.44,16.37-37.35,16.37-35.04,0-60.4-27.43-60.4-63.63s25.36-61.56,60.4-61.56c15.91,0,28.59,5.53,37.35,15.45v-14.75h31.58Zm-32.74,60.86c0-19.83-12.68-33.66-31.35-33.66s-31.35,14.29-31.35,33.66,13.14,33.43,31.35,33.43,31.35-13.6,31.35-33.43Z"/><path class="e" d="M682.43,102.3c0-12.45,9.91-21.67,22.36-21.67s22.13,9.22,22.13,21.67-9.68,21.67-22.13,21.67-22.36-8.99-22.36-21.67Zm5.07,39.42h34.12v121.5h-34.12v-121.5Z"/><path class="e" d="M869.87,94.69v168.53h-31.58v-12.45c-8.99,9.68-21.67,15.45-37.35,15.45-35.04,0-60.4-27.43-60.4-63.63s24.67-63.63,59.48-63.63c14.52,0,26.74,4.84,35.73,13.37v-57.64h34.12Zm-32.74,107.9c0-19.83-12.68-33.66-31.35-33.66s-31.35,14.29-31.35,33.66,13.14,33.43,31.35,33.43,31.35-13.6,31.35-33.43Z"/><path class="e" d="M1091.42,102.99l-36.66,160.23h-40.35l-26.97-112.74-26.97,112.74h-39.88l-36.89-160.23h33.89l23.75,120.11,27.66-120.11h37.12l27.9,120.58,23.75-120.58h33.66Z"/><path class="e" d="M1099.94,102.3c0-12.45,9.91-21.67,22.36-21.67s22.13,9.22,22.13,21.67-9.68,21.67-22.13,21.67-22.36-8.99-22.36-21.67Zm5.07,39.42h34.12v121.5h-34.12v-121.5Z"/><path class="e" d="M1280,186.68v76.54h-33.89v-69.86c0-15.45-10.14-24.21-23.98-24.21s-24.21,9.68-24.44,22.13v71.93h-34.12v-121.5h32.28v11.3c8.3-8.53,20.98-14.29,36.66-14.29,29.05,0,47.49,19.6,47.49,47.95Z"/></g></g></g></g></svg>