<svg width="64" height="64" viewBox="0 0 64 64" fill="none" xmlns="http://www.w3.org/2000/svg">
<rect opacity="0.16" width="64" height="64" rx="24" fill="#5A88FF"/>
<path d="M26 18.9211C26 22.1855 28.692 24.8421 32 24.8421C35.308 24.8421 38 22.1855 38 18.9211C38 15.6566 35.308 13 32 13C28.692 13 26 15.6566 26 18.9211ZM42.6842 38C43.4109 38 44 37.4109 44 36.6842C44 31.6066 39.812 27.4737 34.6667 27.4737H29.3333C24.1867 27.4737 20 31.6066 20 36.6842C20 37.4109 20.5891 38 21.3158 38H42.6842Z" fill="#B5EC5B"/>
<g filter="url(#filter0_b_1609_5)">
<path d="M30.4883 33.1289L27.2478 27.7284C27.1146 27.5063 26.9261 27.3224 26.7006 27.1948C26.4752 27.0671 26.2206 27 25.9615 27H20.7514C20.1443 27 19.789 27.683 20.1368 28.1803L25.3526 35.6316C26.7458 34.3299 28.5176 33.4364 30.4883 33.1289ZM43.2486 27H38.0385C37.5116 27 37.0231 27.2766 36.7522 27.7284L33.5117 33.1289C35.4824 33.4364 37.2542 34.3299 38.6474 35.6311L43.8632 28.1803C44.211 27.683 43.8557 27 43.2486 27ZM32 34.5C27.4437 34.5 23.75 38.1938 23.75 42.75C23.75 47.3063 27.4437 51.0001 32 51.0001C36.5563 51.0001 40.25 47.3063 40.25 42.75C40.25 38.1938 36.5563 34.5 32 34.5ZM36.3369 41.8716L34.5589 43.6041L34.9794 46.0519C35.0544 46.4907 34.5922 46.8258 34.1989 46.6187L32 45.4632L29.8016 46.6187C29.4078 46.8272 28.9461 46.4902 29.0211 46.0519L29.4416 43.6041L27.6636 41.8716C27.3439 41.5604 27.5206 41.0171 27.9612 40.9533L30.4189 40.5952L31.5172 38.3677C31.6161 38.1671 31.8073 38.0682 31.9991 38.0682C32.1917 38.0682 32.3844 38.1685 32.4833 38.3677L33.5816 40.5952L36.0392 40.9533C36.4799 41.0171 36.6566 41.5604 36.3369 41.8716Z" fill="#5A88FF" fill-opacity="0.8"/>
</g>
<defs>
<filter id="filter0_b_1609_5" x="16" y="23" width="32" height="32" filterUnits="userSpaceOnUse" color-interpolation-filters="sRGB">
<feFlood flood-opacity="0" result="BackgroundImageFix"/>
<feGaussianBlur in="BackgroundImageFix" stdDeviation="2"/>
<feComposite in2="SourceAlpha" operator="in" result="effect1_backgroundBlur_1609_5"/>
<feBlend mode="normal" in="SourceGraphic" in2="effect1_backgroundBlur_1609_5" result="shape"/>
</filter>
</defs>
</svg>
