<svg width="64" height="64" viewBox="0 0 64 64" fill="none" xmlns="http://www.w3.org/2000/svg">
<rect opacity="0.16" width="64" height="64" rx="24" fill="#5A88FF"/>
<path d="M21 33.6667C21 35.5972 21.6231 37.3819 22.8693 39.0208C24.1155 40.6597 25.8158 41.9549 27.9702 42.9062C30.1245 43.8576 32.4678 44.3333 35 44.3333C36.1402 44.3333 37.3068 44.2222 38.5 44C40.1439 45.2222 41.9867 46.1111 44.0284 46.6667C44.5057 46.7917 45.0758 46.9028 45.7386 47H45.7983C45.9441 47 46.08 46.9444 46.206 46.8333C46.3319 46.7222 46.4081 46.5764 46.4347 46.3958C46.4479 46.3542 46.4545 46.309 46.4545 46.2604C46.4545 46.2118 46.4512 46.1667 46.4446 46.125C46.438 46.0833 46.4247 46.0417 46.4048 46L46.3551 45.8958L46.2855 45.7812L46.206 45.6771L46.1165 45.5729L46.0369 45.4792C45.9706 45.3958 45.8182 45.2222 45.5795 44.9583C45.3409 44.6944 45.1686 44.4896 45.0625 44.3438C44.9564 44.1979 44.8073 43.9965 44.6151 43.7396C44.4228 43.4826 44.2571 43.2153 44.1179 42.9375C43.9787 42.6597 43.8428 42.3542 43.7102 42.0208C45.3542 41.0208 46.6468 39.7917 47.5881 38.3333C48.5294 36.875 49 35.3194 49 33.6667C49 31.7361 48.3769 29.9514 47.1307 28.3125C45.8845 26.6736 44.1842 25.3785 42.0298 24.4271C39.8755 23.4757 37.5322 23 35 23C32.4678 23 30.1245 23.4757 27.9702 24.4271C25.8158 25.3785 24.1155 26.6736 22.8693 28.3125C21.6231 29.9514 21 31.7361 21 33.6667Z" fill="#B5EC5B"/>
<g filter="url(#filter0_b_1609_6)">
<path d="M43 27.6667C43 29.5972 42.3769 31.3819 41.1307 33.0208C39.8845 34.6597 38.1842 35.9549 36.0298 36.9062C33.8755 37.8576 31.5322 38.3333 29 38.3333C27.8598 38.3333 26.6932 38.2222 25.5 38C23.8561 39.2222 22.0133 40.1111 19.9716 40.6667C19.4943 40.7917 18.9242 40.9028 18.2614 41H18.2017C18.0559 41 17.92 40.9444 17.794 40.8333C17.6681 40.7222 17.5919 40.5764 17.5653 40.3958C17.5521 40.3542 17.5455 40.309 17.5455 40.2604C17.5455 40.2118 17.5488 40.1667 17.5554 40.125C17.562 40.0833 17.5753 40.0417 17.5952 40L17.6449 39.8958L17.7145 39.7812L17.794 39.6771L17.8835 39.5729L17.9631 39.4792C18.0294 39.3958 18.1818 39.2222 18.4205 38.9583C18.6591 38.6944 18.8314 38.4896 18.9375 38.3438C19.0436 38.1979 19.1927 37.9965 19.3849 37.7396C19.5772 37.4826 19.7429 37.2153 19.8821 36.9375C20.0213 36.6597 20.1572 36.3542 20.2898 36.0208C18.6458 35.0208 17.3532 33.7917 16.4119 32.3333C15.4706 30.875 15 29.3194 15 27.6667C15 25.7361 15.6231 23.9514 16.8693 22.3125C18.1155 20.6736 19.8158 19.3785 21.9702 18.4271C24.1245 17.4757 26.4678 17 29 17C31.5322 17 33.8755 17.4757 36.0298 18.4271C38.1842 19.3785 39.8845 20.6736 41.1307 22.3125C42.3769 23.9514 43 25.7361 43 27.6667Z" fill="#5A88FF" fill-opacity="0.8"/>
</g>
<circle cx="29" cy="28" r="2" fill="#B5EC5B"/>
<circle cx="23" cy="28" r="2" fill="#B5EC5B"/>
<circle cx="35" cy="28" r="2" fill="#B5EC5B"/>
<defs>
<filter id="filter0_b_1609_6" x="12" y="14" width="34" height="30" filterUnits="userSpaceOnUse" color-interpolation-filters="sRGB">
<feFlood flood-opacity="0" result="BackgroundImageFix"/>
<feGaussianBlur in="BackgroundImageFix" stdDeviation="1.5"/>
<feComposite in2="SourceAlpha" operator="in" result="effect1_backgroundBlur_1609_6"/>
<feBlend mode="normal" in="SourceGraphic" in2="effect1_backgroundBlur_1609_6" result="shape"/>
</filter>
</defs>
</svg>
