<svg width="80" height="80" viewBox="0 0 80 80" fill="none" xmlns="http://www.w3.org/2000/svg">
<rect width="80" height="80" rx="24" fill="url(#paint0_radial_1519_159)" fill-opacity="0.8"/>
<path opacity="0.16" d="M31 26.5V31H49V49H53.5C54.6935 49 55.8381 48.5259 56.682 47.682C57.5259 46.8381 58 45.6935 58 44.5V26.5C58 25.3065 57.5259 24.1619 56.682 23.318C55.8381 22.4741 54.6935 22 53.5 22H35.5C34.3065 22 33.1619 22.4741 32.318 23.318C31.4741 24.1619 31 25.3065 31 26.5Z" fill="#6A7080"/>
<path d="M49 49V53.5C49 54.6935 48.5259 55.8381 47.682 56.682C46.8381 57.5259 45.6935 58 44.5 58H26.5C25.3065 58 24.1619 57.5259 23.318 56.682C22.4741 55.8381 22 54.6935 22 53.5V35.5C22 34.3065 22.4741 33.1619 23.318 32.318C24.1619 31.4741 25.3065 31 26.5 31H31V26.5C31 25.3065 31.4741 24.1619 32.318 23.318C33.1619 22.4741 34.3065 22 35.5 22H53.5C54.6935 22 55.8381 22.4741 56.682 23.318C57.5259 24.1619 58 25.3065 58 26.5V44.5C58 45.6935 57.5259 46.8381 56.682 47.682C55.8381 48.5259 54.6935 49 53.5 49H49Z" stroke="#6A7080" strokeWidth="2" stroke-linecap="round" stroke-linejoin="round"/>
<path opacity="0.16" d="M49 53.5L49 49L31 49L31 31L26.5 31C25.3065 31 24.1619 31.4741 23.318 32.318C22.4741 33.1619 22 34.3065 22 35.5L22 53.5C22 54.6935 22.4741 55.8381 23.318 56.682C24.1619 57.5259 25.3065 58 26.5 58L44.5 58C45.6935 58 46.8381 57.5259 47.682 56.682C48.5259 55.8381 49 54.6935 49 53.5Z" fill="#6A7080"/>
<path d="M35.5 31H31V35.5M31 44.5V49H35.5M44.5 31H49V35.5M49 44.5V49H44.5" stroke="#6A7080" strokeWidth="2" stroke-linecap="round" stroke-linejoin="round"/>
<defs>
<radialGradient id="paint0_radial_1519_159" cx="0" cy="0" r="1" gradientUnits="userSpaceOnUse" gradientTransform="rotate(45) scale(113.137)">
<stop stop-color="#29334A"/>
<stop offset="0.727753" stop-color="#29334A" stop-opacity="0"/>
</radialGradient>
</defs>
</svg>
