<svg width="19" height="20" viewBox="0 0 19 20" fill="none" xmlns="http://www.w3.org/2000/svg">
<path opacity="0.8" d="M14.5 10C15.0198 14.8381 17.1053 15.4018 17.1053 15.4018H1C1 15.4018 3.68421 13.4819 3.68421 6.76073C3.68421 5.23324 4.24968 3.76785 5.25626 2.68772C6.26374 1.60758 7.63 1 9.05263 1M10.6005 18.1022C10.4434 18.3752 10.2177 18.6019 9.946 18.7595C9.67432 18.917 9.36623 19 9.05263 19C8.73903 19 8.43094 18.917 8.15926 18.7595C7.88758 18.6019 7.66186 18.3752 7.50474 18.1022M15.3158 6.40069C16.0277 6.40069 16.7104 6.11619 17.2138 5.60978C17.7172 5.10336 18 4.41652 18 3.70034C18 2.98417 17.7172 2.29733 17.2138 1.79091C16.7104 1.2845 16.0277 1 15.3158 1C14.6039 1 13.9212 1.2845 13.4178 1.79091C12.9144 2.29733 12.6316 2.98417 12.6316 3.70034C12.6316 4.41652 12.9144 5.10336 13.4178 5.60978C13.9212 6.11619 14.6039 6.40069 15.3158 6.40069Z" stroke="#6A707F" strokeWidth="2" stroke-linecap="round" stroke-linejoin="round"/>
</svg>
