<svg width="20" height="24" viewBox="0 0 20 24" fill="none" xmlns="http://www.w3.org/2000/svg">
<path d="M8 13V15C6.4087 15 4.88258 15.6321 3.75736 16.7574C2.63214 17.8826 2 19.4087 2 21H0C0 18.8783 0.842855 16.8434 2.34315 15.3431C3.84344 13.8429 5.87827 13 8 13ZM8 12C4.685 12 2 9.315 2 6C2 2.685 4.685 0 8 0C11.315 0 14 2.685 14 6C14 9.315 11.315 12 8 12ZM8 10C10.21 10 12 8.21 12 6C12 3.79 10.21 2 8 2C5.79 2 4 3.79 4 6C4 8.21 5.79 10 8 10Z" fill="#6A7080"/>
<path d="M11.1852 23.5472L13.774 22.2356C13.9161 22.1636 14.0839 22.1636 14.226 22.2356L16.8138 23.5472C17.1816 23.7336 17.6042 23.4197 17.5321 23.0138L17.0479 20.2872C17.0184 20.121 17.0748 19.9511 17.1978 19.8355L19.2397 17.9163C19.5456 17.6289 19.3824 17.1152 18.9667 17.0569L16.112 16.6565C15.9508 16.6339 15.8107 16.5342 15.7365 16.3893L14.4451 13.8689C14.2593 13.5061 13.7408 13.5062 13.5551 13.869L12.2648 16.3892C12.1905 16.5342 12.0504 16.6339 11.8891 16.6565L9.03335 17.0569C8.61761 17.1152 8.45444 17.6289 8.76034 17.9164L10.8021 19.8354C10.9252 19.9511 10.9815 20.121 10.952 20.2873L10.467 23.0136C10.3947 23.4196 10.8174 23.7336 11.1852 23.5472Z" fill="#F5C64B"/>
</svg>
