<svg width="18" height="20" viewBox="0 0 18 20" fill="none" xmlns="http://www.w3.org/2000/svg">
<path d="M10.1448 5.16123e-06C11.6486 -0.00150219 13.1337 0.327177 14.4925 0.962167C15.8512 1.59716 17.0494 2.52251 18 3.671L11.5793 10L18 16.329C17.0494 17.4775 15.8512 18.4028 14.4925 19.0378C13.1337 19.6728 11.6486 20.0015 10.1448 20C4.54185 20 0 15.523 0 10C0 4.477 4.54185 5.16123e-06 10.1448 5.16123e-06ZM10.1448 3C9.74126 3 9.3542 3.15804 9.06882 3.43934C8.78344 3.72065 8.62312 4.10218 8.62312 4.5C8.62312 4.89783 8.78344 5.27936 9.06882 5.56066C9.3542 5.84197 9.74126 6 10.1448 6C10.5484 6 10.9355 5.84197 11.2209 5.56066C11.5062 5.27936 11.6666 4.89783 11.6666 4.5C11.6666 4.10218 11.5062 3.72065 11.2209 3.43934C10.9355 3.15804 10.5484 3 10.1448 3Z" fill="#F5C64B"/>
</svg>
