<svg width="32" height="32" viewBox="0 0 32 32" fill="none" xmlns="http://www.w3.org/2000/svg">
<path d="M16 32C24.8366 32 32 24.8366 32 16C32 7.16344 24.8366 0 16 0C7.16344 0 0 7.16344 0 16C0 24.8366 7.16344 32 16 32Z" fill="#3A31A3"/>
<path d="M26.5883 15.8622H23.9011C23.9011 10.4153 19.4461 6 13.9503 6C8.52257 6 4.10975 10.3072 4.00176 15.6607C3.89002 21.1946 9.12844 26 14.7127 26H15.4151C20.3383 26 26.9371 22.1804 27.968 17.5265C28.1584 16.6685 27.4746 15.8622 26.5883 15.8622ZM9.95697 16.1048C9.95697 16.8331 9.3559 17.4289 8.62097 17.4289C7.88603 17.4289 7.28496 16.8329 7.28496 16.1048V13.9627C7.28496 13.2343 7.88603 12.6385 8.62097 12.6385C9.3559 12.6385 9.95697 13.2343 9.95697 13.9627V16.1048ZM14.5962 16.1048C14.5962 16.8331 13.9951 17.4289 13.2602 17.4289C12.5253 17.4289 11.9242 16.8329 11.9242 16.1048V13.9627C11.9242 13.2343 12.5256 12.6385 13.2602 12.6385C13.9951 12.6385 14.5962 13.2343 14.5962 13.9627V16.1048Z" fill="white"/>
</svg>
