<svg width="162" height="261" viewBox="0 0 162 261" fill="none" xmlns="http://www.w3.org/2000/svg">
<path d="M1 21H161L127.576 221.544C123.781 244.312 104.082 261 81 261C57.9178 261 38.2187 244.312 34.424 221.544L1 21Z" fill="url(#paint0_radial_2902_2)"/>
<path d="M1 21H161L127.576 221.544C123.781 244.312 104.082 261 81 261C57.9178 261 38.2187 244.312 34.424 221.544L1 21Z" fill="url(#paint1_radial_2902_2)" fill-opacity="0.32"/>
<g filter="url(#filter0_i_2902_2)">
<ellipse cx="81" cy="21" rx="80" ry="20" fill="#242F4A"/>
</g>
<ellipse cx="81" cy="21" rx="80" ry="20" stroke="url(#paint2_linear_2902_2)" stroke-opacity="0.8" stroke-width="2"/>
<defs>
<filter id="filter0_i_2902_2" x="0" y="-4" width="162" height="46" filterUnits="userSpaceOnUse" color-interpolation-filters="sRGB">
<feFlood flood-opacity="0" result="BackgroundImageFix"/>
<feBlend mode="normal" in="SourceGraphic" in2="BackgroundImageFix" result="shape"/>
<feColorMatrix in="SourceAlpha" type="matrix" values="0 0 0 0 0 0 0 0 0 0 0 0 0 0 0 0 0 0 127 0" result="hardAlpha"/>
<feOffset dy="-4"/>
<feGaussianBlur stdDeviation="10"/>
<feComposite in2="hardAlpha" operator="arithmetic" k2="-1" k3="1"/>
<feColorMatrix type="matrix" values="0 0 0 0 0.917647 0 0 0 0 0.309804 0 0 0 0 0.917647 0 0 0 0.8 0"/>
<feBlend mode="normal" in2="shape" result="effect1_innerShadow_2902_2"/>
</filter>
<radialGradient id="paint0_radial_2902_2" cx="0" cy="0" r="1" gradientUnits="userSpaceOnUse" gradientTransform="translate(81 21) rotate(90) scale(240 66.5285)">
<stop stop-color="#3B4869"/>
<stop offset="1" stop-color="#192032"/>
</radialGradient>
<radialGradient id="paint1_radial_2902_2" cx="0" cy="0" r="1" gradientUnits="userSpaceOnUse" gradientTransform="translate(81 21) rotate(90) scale(240 161)">
<stop stop-color="#EA4FEA"/>
<stop offset="1" stop-color="#242F4A" stop-opacity="0"/>
</radialGradient>
<linearGradient id="paint2_linear_2902_2" x1="81" y1="1" x2="81" y2="41" gradientUnits="userSpaceOnUse">
<stop stop-color="#242F4A" stop-opacity="0"/>
<stop offset="1" stop-color="#EA4FEA"/>
</linearGradient>
</defs>
</svg>
