<svg width="124" height="48" viewBox="0 0 124 48" fill="none" xmlns="http://www.w3.org/2000/svg">
<path opacity="0.24" d="M123.104 41.692C115.32 44.4429 107.412 46.5229 99.0937 47.9655C97.1425 48.3009 95.8075 46.1035 97.6971 45.2481C100.593 43.9229 103.489 42.7655 106.447 41.7591C66.1286 40.6856 26.7964 26.2096 0.218875 1.18289C-0.479452 0.528706 0.650194 -0.42741 1.41014 0.209999C30.7809 25.5051 70.7704 39.6959 113.409 38.874C110.431 37.8004 107.453 36.7269 104.454 35.6534C102.298 34.8818 104.167 32.2818 106.303 33.0534C111.89 35.0663 117.476 37.0792 123.063 39.092C124.295 39.5282 124.316 41.2559 123.104 41.692Z" fill="#6A7080"/>
</svg>
