<svg width="124" height="48" viewBox="0 0 124 48" fill="none" xmlns="http://www.w3.org/2000/svg">
<path opacity="0.24" d="M123.104 6.30801C115.32 3.55708 107.412 1.47711 99.0937 0.0345465C97.1425 -0.300933 95.8075 1.89646 97.6971 2.75193C100.593 4.07707 103.489 5.23447 106.447 6.24091C66.1286 7.31444 26.7964 21.7904 0.218875 46.8171C-0.479452 47.4713 0.650194 48.4274 1.41014 47.79C30.7809 22.4949 70.7704 8.30411 113.409 9.12603C110.431 10.1996 107.453 11.2731 104.454 12.3466C102.298 13.1182 104.167 15.7182 106.303 14.9466C111.89 12.9337 117.476 10.9208 123.063 8.90797C124.295 8.47185 124.316 6.74413 123.104 6.30801Z" fill="#6A7080"/>
</svg>
