<svg width="18" height="18" viewBox="0 0 18 18" fill="none" xmlns="http://www.w3.org/2000/svg">
<path d="M1.35543 5.22619L16.3837 1.01795C16.4667 0.99473 16.5544 0.994025 16.6378 1.01591C16.7211 1.03779 16.7972 1.08148 16.8581 1.14248C16.919 1.20347 16.9625 1.27958 16.9843 1.36299C17.006 1.44639 17.0052 1.53408 16.9818 1.61705L12.7745 16.644C12.7477 16.7406 12.6917 16.8266 12.6141 16.8902C12.5365 16.9537 12.4411 16.9916 12.3411 16.9988C12.241 17.0059 12.1412 16.9819 12.0554 16.93C11.9696 16.8781 11.9019 16.8009 11.8617 16.709L8.70789 9.54124C8.65919 9.42988 8.57049 9.34083 8.45931 9.2917L1.29135 6.13794C1.19944 6.09784 1.1222 6.03027 1.07025 5.9445C1.01829 5.85874 0.994169 5.75899 1.00119 5.65896C1.00822 5.55893 1.04604 5.46353 1.10947 5.38587C1.1729 5.3082 1.25882 5.25209 1.35543 5.22522V5.22619Z" stroke="white" strokeWidth="2" strokeLinecap="round" strokeLinejoin="round"/>
</svg>
