<svg width="1120" height="559" viewBox="0 0 1120 559" fill="none" xmlns="http://www.w3.org/2000/svg">
<g opacity="0.28">
<path d="M460 -369H660L580 231H540L460 -369Z" fill="#242F4A"/>
<path d="M1160 131V331L560 251V211L1160 131Z" fill="#242F4A"/>
<path d="M1054.98 584.554L913.555 725.975L545.86 245.142L574.144 216.858L1054.98 584.554Z" fill="#242F4A"/>
<path d="M913.555 -263.977L1054.98 -122.555L574.143 245.14L545.859 216.856L913.555 -263.977Z" fill="#242F4A"/>
<path d="M660 831H460L540 231H580L660 831Z" fill="#242F4A"/>
<path d="M-40 331L-40 131L560 211V251L-40 331Z" fill="#242F4A"/>
<path d="M65.0234 -122.554L206.445 -263.975L574.14 216.858L545.856 245.142L65.0234 -122.554Z" fill="#242F4A"/>
<path d="M206.445 725.977L65.024 584.555L545.857 216.86L574.141 245.144L206.445 725.977Z" fill="#242F4A"/>
</g>
</svg>
