<svg width="20" height="20" viewBox="0 0 20 20" fill="none" xmlns="http://www.w3.org/2000/svg">
<path d="M18.3613 4.06493L18.362 4.06503C18.5742 4.09685 18.7869 4.12514 19 4.14989V8.18159C19 12.1069 16.3628 16.9603 10.115 18.9848C3.86017 16.9581 1 12.0998 1 7.95432V4.15141C1.44995 4.10094 1.89838 4.03783 2.34474 3.96216C3.60781 3.75013 4.85261 3.4426 6.06821 3.04226L6.06821 3.04227L6.07216 3.04095C7.43916 2.58444 8.87762 1.94957 10.1169 1.0698C12.0202 2.38833 14.2741 3.16006 16.06 3.60465C16.9836 3.83459 17.7876 3.97847 18.3613 4.06493ZM10.0229 19.0143C10.0232 19.0142 10.0235 19.0141 10.0238 19.014C10.0237 19.0141 10.0236 19.0141 10.0235 19.0141L10.0229 19.0143Z" stroke="#6A7080" strokeWidth="2"/>
<path d="M7 10L9 12L13 8" stroke="#6A707F" strokeWidth="2" strokeLinecap="round"/>
</svg>
