<svg width="89" height="106" viewBox="0 0 89 106" fill="none" xmlns="http://www.w3.org/2000/svg">
<g style="mix-blend-mode:multiply" opacity="0.4" filter="url(#filter0_f_1050_369)">
<path d="M67.704 52.6986L55.5216 56.3657L45.6112 48.4307C45.3402 48.2133 45.0044 48.0916 44.6565 48.0847C43.7833 48.0662 43.0563 48.7599 43.0315 49.6337L42.7397 62.326L32.0999 69.3011C31.8062 69.4926 31.5875 69.7746 31.4718 70.1014C31.3328 70.4985 31.3573 70.9341 31.5399 71.3124C31.7225 71.6908 32.0482 71.981 32.4456 72.1193L44.4451 76.2971L47.7804 88.5423C47.8576 88.8273 48.0133 89.0849 48.2299 89.2858C48.4465 89.4867 48.7152 89.6228 49.0056 89.6788C49.2961 89.7349 49.5966 89.7085 49.8731 89.6027C50.1496 89.497 50.3911 89.316 50.5701 89.0804L58.2812 78.9692L70.9834 79.5615C71.331 79.5795 71.6776 79.4779 71.9627 79.2795C72.682 78.7804 72.8629 77.7956 72.3644 77.0786L65.128 66.6525L69.6407 54.7749C69.763 54.4505 69.7776 54.0945 69.6762 53.7598C69.4318 52.9188 68.5449 52.4484 67.704 52.6986Z" fill="#D2D7E7"/>
</g>
<g opacity="0.64" filter="url(#filter1_f_1050_369)">
<path d="M52.9125 20.9779L40.7301 24.645L30.8197 16.71C30.5487 16.4926 30.2129 16.3709 29.865 16.364C28.9918 16.3455 28.2648 17.0392 28.24 17.913L27.9482 30.6053L17.3084 37.5804C17.0147 37.7719 16.796 38.0539 16.6803 38.3807C16.5413 38.7778 16.5658 39.2134 16.7484 39.5917C16.931 39.9701 17.2567 40.2603 17.6541 40.3986L29.6535 44.5764L32.9889 56.8216C33.0661 57.1066 33.2218 57.3642 33.4384 57.5651C33.655 57.766 33.9237 57.9021 34.2141 57.9581C34.5046 58.0142 34.8051 57.9878 35.0816 57.882C35.3581 57.7762 35.5996 57.5953 35.7786 57.3597L43.4897 47.2485L56.1919 47.8408C56.5395 47.8588 56.8861 47.7572 57.1711 47.5588C57.8905 47.0597 58.0714 46.0749 57.5729 45.3579L50.3365 34.9318L54.8492 23.0542C54.9715 22.7298 54.9861 22.3738 54.8847 22.0391C54.6403 21.1981 53.7534 20.7277 52.9125 20.9779Z" fill="#D2D7E7"/>
</g>
<path opacity="0.24" d="M59.7052 28.9047L45.7801 33.0906L34.4391 23.9903C34.129 23.7409 33.7449 23.6011 33.347 23.5928C32.3486 23.5706 31.5181 24.3643 31.4908 25.3651L31.1722 39.9024L19.0147 47.8789C18.6791 48.098 18.4294 48.4208 18.2975 48.7949C18.1391 49.2496 18.1676 49.7485 18.3768 50.1821C18.5861 50.6157 18.9589 50.9485 19.4133 51.1074L33.1386 55.9068L36.9667 69.9362C37.0553 70.2627 37.2337 70.5579 37.4815 70.7882C37.7294 71.0186 38.0368 71.1749 38.369 71.2394C38.7011 71.3039 39.0447 71.274 39.3608 71.1532C39.6768 71.0324 39.9527 70.8254 40.1571 70.5558L48.9621 58.9836L63.4866 59.6771C63.8841 59.6981 64.2802 59.5821 64.6059 59.3552C65.4278 58.7844 65.6336 57.6566 65.0627 56.8348L56.7762 44.8843L61.9221 31.2852C62.0615 30.9138 62.0777 30.506 61.9614 30.1225C61.681 29.159 60.6663 28.6191 59.7052 28.9047Z" fill="#D2D7E7"/>
<path opacity="0.48" d="M61.3959 32.5307L47.4708 36.7166L36.1298 27.6162C35.8196 27.3669 35.4355 27.2271 35.0377 27.2187C34.0393 27.1965 33.2088 27.9903 33.1815 28.991L32.8629 43.5283L20.7054 51.5049C20.3698 51.7239 20.1201 52.0467 19.9882 52.4209C19.8298 52.8755 19.8583 53.3745 20.0675 53.8081C20.2767 54.2417 20.6495 54.5745 21.104 54.7333L34.8292 59.5327L38.6573 73.5621C38.746 73.8887 38.9243 74.1839 39.1722 74.4142C39.42 74.6446 39.7275 74.8009 40.0596 74.8654C40.3918 74.9299 40.7354 74.9 41.0514 74.7792C41.3675 74.6584 41.6434 74.4514 41.8478 74.1818L50.6527 62.6096L65.1773 63.3031C65.5748 63.3241 65.9709 63.2081 66.2966 62.9812C67.1185 62.4104 67.3242 61.2826 66.7534 60.4607L58.4669 48.5103L63.6127 34.9112C63.7522 34.5397 63.7684 34.132 63.6521 33.7485C63.3717 32.7849 62.357 32.245 61.3959 32.5307Z" fill="#D2D7E7"/>
<g filter="url(#filter2_ii_1050_369)">
<path d="M63.0863 36.1557L49.1612 40.3416L37.8202 31.2412C37.5101 30.9919 37.126 30.8521 36.7281 30.8437C35.7297 30.8215 34.8992 31.6153 34.8719 32.616L34.5533 47.1533L22.3958 55.1299C22.0602 55.3489 21.8105 55.6717 21.6786 56.0459C21.5202 56.5005 21.5487 56.9995 21.7579 57.4331C21.9672 57.8667 22.34 58.1995 22.7944 58.3583L36.5197 63.1577L40.3478 77.1871C40.4364 77.5137 40.6148 77.8089 40.8626 78.0392C41.1105 78.2696 41.4179 78.4259 41.7501 78.4904C42.0822 78.5549 42.4258 78.525 42.7419 78.4042C43.0579 78.2834 43.3338 78.0764 43.5382 77.8068L52.3432 66.2346L66.8677 66.9281C67.2652 66.9491 67.6614 66.8331 67.987 66.6062C68.8089 66.0354 69.0147 64.9076 68.4438 64.0857L60.1573 52.1353L65.3032 38.5362C65.4426 38.1647 65.4588 37.757 65.3425 37.3735C65.0621 36.4099 64.0474 35.87 63.0863 36.1557Z" fill="#D2D7E7"/>
</g>
<g filter="url(#filter3_d_1050_369)">
<path d="M52.4595 55.1466L53.8516 58.132L44.6997 62.3996L43.5967 60.0341L45.9439 54.2922C46.1456 53.7877 46.2505 53.3879 46.2585 53.0928C46.2666 52.7978 46.2174 52.5361 46.1109 52.3077C45.979 52.0249 45.7797 51.853 45.5129 51.7921C45.252 51.7151 44.9421 51.7604 44.5832 51.9277C44.2351 52.09 43.952 52.3346 43.7337 52.6615C43.5154 52.9884 43.4033 53.3584 43.3973 53.7716L39.8165 53.6738C39.8712 52.6553 40.2082 51.7169 40.8275 50.8588C41.4418 49.9897 42.3417 49.2788 43.5271 48.726C44.4298 48.3051 45.2976 48.0792 46.1306 48.0483C46.9636 48.0173 47.7026 48.1825 48.3477 48.5437C48.9928 48.9049 49.4802 49.439 49.8098 50.1459C50.104 50.7767 50.2444 51.4328 50.2312 52.1142C50.2237 52.7797 49.9962 53.6405 49.5486 54.6967L48.6095 56.9419L52.4595 55.1466Z" fill="white"/>
</g>
<defs>
<filter id="filter0_f_1050_369" x="15.3828" y="32.084" width="73.2634" height="73.624" filterUnits="userSpaceOnUse" color-interpolation-filters="sRGB">
<feFlood flood-opacity="0" result="BackgroundImageFix"/>
<feBlend mode="normal" in="SourceGraphic" in2="BackgroundImageFix" result="shape"/>
<feGaussianBlur stdDeviation="8" result="effect1_foregroundBlur_1050_369"/>
</filter>
<filter id="filter1_f_1050_369" x="0.591309" y="0.363281" width="73.2634" height="73.624" filterUnits="userSpaceOnUse" color-interpolation-filters="sRGB">
<feFlood flood-opacity="0" result="BackgroundImageFix"/>
<feBlend mode="normal" in="SourceGraphic" in2="BackgroundImageFix" result="shape"/>
<feGaussianBlur stdDeviation="8" result="effect1_foregroundBlur_1050_369"/>
</filter>
<filter id="filter2_ii_1050_369" x="21.5774" y="28.8438" width="48.1897" height="53.6797" filterUnits="userSpaceOnUse" color-interpolation-filters="sRGB">
<feFlood flood-opacity="0" result="BackgroundImageFix"/>
<feBlend mode="normal" in="SourceGraphic" in2="BackgroundImageFix" result="shape"/>
<feColorMatrix in="SourceAlpha" type="matrix" values="0 0 0 0 0 0 0 0 0 0 0 0 0 0 0 0 0 0 127 0" result="hardAlpha"/>
<feOffset dy="-2"/>
<feGaussianBlur stdDeviation="3"/>
<feComposite in2="hardAlpha" operator="arithmetic" k2="-1" k3="1"/>
<feColorMatrix type="matrix" values="0 0 0 0 0.213056 0 0 0 0 0.301167 0 0 0 0 0.433333 0 0 0 0.54 0"/>
<feBlend mode="normal" in2="shape" result="effect1_innerShadow_1050_369"/>
<feColorMatrix in="SourceAlpha" type="matrix" values="0 0 0 0 0 0 0 0 0 0 0 0 0 0 0 0 0 0 127 0" result="hardAlpha"/>
<feOffset dx="1" dy="4"/>
<feGaussianBlur stdDeviation="2"/>
<feComposite in2="hardAlpha" operator="arithmetic" k2="-1" k3="1"/>
<feColorMatrix type="matrix" values="0 0 0 0 0.95 0 0 0 0 0.95 0 0 0 0 0.95 0 0 0 1 0"/>
<feBlend mode="normal" in2="effect1_innerShadow_1050_369" result="effect2_innerShadow_1050_369"/>
</filter>
<filter id="filter3_d_1050_369" x="34.5842" y="46.4512" width="23.2673" height="24.2607" filterUnits="userSpaceOnUse" color-interpolation-filters="sRGB">
<feFlood flood-opacity="0" result="BackgroundImageFix"/>
<feColorMatrix in="SourceAlpha" type="matrix" values="0 0 0 0 0 0 0 0 0 0 0 0 0 0 0 0 0 0 127 0" result="hardAlpha"/>
<feOffset dy="4"/>
<feGaussianBlur stdDeviation="2"/>
<feComposite in2="hardAlpha" operator="out"/>
<feColorMatrix type="matrix" values="0 0 0 0 0.693003 0 0 0 0 0.695117 0 0 0 0 0.745833 0 0 0 0.63 0"/>
<feBlend mode="normal" in2="BackgroundImageFix" result="effect1_dropShadow_1050_369"/>
<feBlend mode="normal" in="SourceGraphic" in2="effect1_dropShadow_1050_369" result="shape"/>
</filter>
</defs>
</svg>
