<svg width="22" height="22" viewBox="0 0 22 22" fill="none" xmlns="http://www.w3.org/2000/svg">
<path d="M11 1C16.5229 1 21 5.47716 21 11C21 16.5229 16.5229 21 11 21C5.47716 21 1 16.5229 1 11C1 5.47716 5.47716 1 11 1Z" stroke="#579AFF" strokeWidth="2" strokeLinecap="round"/>
<path d="M7 13C7.5 14.5 8.79086 16 11 16C13.2091 16 14.5 14.5 15 13" stroke="#579AFF" strokeWidth="2" strokeLinecap="round"/>
<path d="M7.5 10C8.32843 10 9 9.32843 9 8.5C9 7.67157 8.32843 7 7.5 7C6.67157 7 6 7.67157 6 8.5C6 9.32843 6.67157 10 7.5 10Z" fill="#579AFF"/>
<path d="M14.5 10C15.3284 10 16 9.32843 16 8.5C16 7.67157 15.3284 7 14.5 7C13.6716 7 13 7.67157 13 8.5C13 9.32843 13.6716 10 14.5 10Z" fill="#579AFF"/>
</svg>
