<svg width="12" height="12" viewBox="0 0 12 12" fill="none" xmlns="http://www.w3.org/2000/svg">
<path d="M11.0214 2.52786C11.8013 2.35091 12.3183 3.25442 11.7761 3.84671L9.83859 5.96467C9.72068 6.09381 9.64575 6.25494 9.62453 6.42505C9.60331 6.59516 9.63688 6.76553 9.72043 6.91182L11.094 9.31239C11.4785 9.98429 10.7483 10.7813 10.0286 10.4767L7.4583 9.38533C7.30148 9.31862 7.12542 9.30348 6.95537 9.34209C6.78532 9.3807 6.63001 9.47107 6.51172 9.60024L4.57423 11.7182C4.03244 12.3112 3.06354 11.9002 3.16106 11.1177L3.50954 8.32595C3.53075 8.15569 3.49707 7.98518 3.41333 7.83883C3.32959 7.69248 3.20009 7.5778 3.04336 7.5112L0.473045 6.41986C-0.246987 6.11448 -0.114844 5.06304 0.664605 4.8854L3.45115 4.25132C3.62116 4.21253 3.77638 4.122 3.89454 3.99271C4.0127 3.86342 4.08774 3.702 4.10889 3.53161L4.45706 0.740999C4.55537 -0.0401903 5.60497 -0.279055 5.98903 0.39216L7.3622 2.79203C7.44589 2.9384 7.57536 3.05311 7.73206 3.11975C7.88876 3.1864 8.06466 3.20155 8.23459 3.16305L11.0211 2.52897L11.0214 2.52786Z" fill="#F5C64B"/>
</svg>
