<svg width="24" height="24" viewBox="0 0 24 24" fill="none" xmlns="http://www.w3.org/2000/svg">
<path d="M12 23C18.0751 23 23 18.0751 23 12C23 5.92487 18.0751 1 12 1C5.92487 1 1 5.92487 1 12C1 18.0751 5.92487 23 12 23Z" stroke="#6A7080" strokeWidth="2" strokeLinecap="round" stroke-linejoin="round"/>
<path d="M12.0001 18.1106V18.1228M12.0001 13.8328C11.9776 13.436 12.0846 13.0427 12.3051 12.712C12.5255 12.3814 12.8474 12.1313 13.2223 11.9994C13.6817 11.8238 14.0941 11.5438 14.4269 11.1817C14.7598 10.8196 15.004 10.3852 15.1404 9.91261C15.2768 9.44005 15.3017 8.94229 15.213 8.4585C15.1243 7.97471 14.9246 7.5181 14.6295 7.12463C14.3344 6.73115 13.952 6.41155 13.5124 6.19098C13.0727 5.97041 12.5879 5.85489 12.0961 5.85353C11.6042 5.85216 11.1188 5.96499 10.678 6.18311C10.2371 6.40124 9.85295 6.71872 9.55566 7.11055" stroke="#6A7080" strokeWidth="2" strokeLinecap="round" stroke-linejoin="round"/>
</svg>
