<svg width="1200" height="1024" viewBox="0 0 1200 1024" fill="none" xmlns="http://www.w3.org/2000/svg">
<path opacity="0.4" d="M20.5652 995.351L0 1024H1160C1182.09 1024 1200 1006.09 1200 984V0L1183.38 35.1518C1166.75 70.3037 1133.51 140.607 1088.44 191.403C1043.36 242.198 986.464 273.484 929.565 304.771C872.667 336.058 815.768 367.345 750.986 385.626C686.203 403.907 613.536 409.182 560.58 446.972C507.623 484.761 474.377 555.065 449.015 638.374C423.652 721.684 406.174 817.999 353.218 855.788C300.261 893.578 211.826 872.842 147.043 891.123C82.2608 909.404 41.1304 966.702 20.5652 995.351Z" fill="url(#paint0_radial_1519_9)"/>
<defs>
<radialGradient id="paint0_radial_1519_9" cx="0" cy="0" r="1" gradientUnits="userSpaceOnUse" gradientTransform="translate(600.501 512.666) rotate(40.4621) scale(787.947 1555.21)">
<stop stop-color="#29334A"/>
<stop offset="1" stop-color="#131826" stop-opacity="0"/>
</radialGradient>
</defs>
</svg>
