<svg width="80" height="80" viewBox="0 0 80 80" fill="none" xmlns="http://www.w3.org/2000/svg">
<rect width="80" height="80" rx="24" fill="url(#paint0_radial_1519_153)" fill-opacity="0.8"/>
<path opacity="0.16" d="M53.5 22H26.5C24.0147 22 22 24.0147 22 26.5V53.5C22 55.9853 24.0147 58 26.5 58H53.5C55.9853 58 58 55.9853 58 53.5V26.5C58 24.0147 55.9853 22 53.5 22Z" fill="#6A7080"/>
<path d="M53.5 22H26.5C24.0147 22 22 24.0147 22 26.5V53.5C22 55.9853 24.0147 58 26.5 58H53.5C55.9853 58 58 55.9853 58 53.5V26.5C58 24.0147 55.9853 22 53.5 22Z" stroke="#6A7080" strokeWidth="2" stroke-linecap="round" stroke-linejoin="round"/>
<path d="M40 22V27.625C40 27.9234 39.8815 28.2095 39.6705 28.4205C39.4595 28.6315 39.1734 28.75 38.875 28.75C37.9799 28.75 37.1214 29.1056 36.4885 29.7385C35.8556 30.3714 35.5 31.2299 35.5 32.125C35.5 33.0201 35.8556 33.8786 36.4885 34.5115C37.1214 35.1444 37.9799 35.5 38.875 35.5C39.1734 35.5 39.4595 35.6185 39.6705 35.8295C39.8815 36.0405 40 36.3266 40 36.625V40M40 40V43.375C40 43.6734 40.1185 43.9595 40.3295 44.1705C40.5405 44.3815 40.8266 44.5 41.125 44.5C42.0201 44.5 42.8786 44.8556 43.5115 45.4885C44.1444 46.1214 44.5 46.9799 44.5 47.875C44.5 48.7701 44.1444 49.6285 43.5115 50.2615C42.8786 50.8944 42.0201 51.25 41.125 51.25C40.8266 51.25 40.5405 51.3685 40.3295 51.5795C40.1185 51.7905 40 52.0766 40 52.375V58M58 40H52.375C52.0766 40 51.7905 39.8815 51.5795 39.6705C51.3685 39.4595 51.25 39.1734 51.25 38.875C51.25 37.9799 50.8944 37.1214 50.2615 36.4885C49.6285 35.8556 48.7701 35.5 47.875 35.5C46.9799 35.5 46.1214 35.8556 45.4885 36.4885C44.8556 37.1214 44.5 37.9799 44.5 38.875C44.5 39.1734 44.3815 39.4595 44.1705 39.6705C43.9595 39.8815 43.6734 40 43.375 40H40M40 40H36.625C36.3266 40 36.0405 40.1185 35.8295 40.3295C35.6185 40.5405 35.5 40.8266 35.5 41.125C35.5 42.0201 35.1444 42.8786 34.5115 43.5115C33.8786 44.1444 33.0201 44.5 32.125 44.5C31.2299 44.5 30.3714 44.1444 29.7385 43.5115C29.1056 42.8786 28.75 42.0201 28.75 41.125C28.75 40.8266 28.6315 40.5405 28.4205 40.3295C28.2095 40.1185 27.9234 40 27.625 40H22" stroke="#6A7080" strokeWidth="2" stroke-linecap="round" stroke-linejoin="round"/>
<defs>
<radialGradient id="paint0_radial_1519_153" cx="0" cy="0" r="1" gradientUnits="userSpaceOnUse" gradientTransform="rotate(45) scale(113.137)">
<stop stop-color="#29334A"/>
<stop offset="0.727753" stop-color="#29334A" stop-opacity="0"/>
</radialGradient>
</defs>
</svg>
