<svg width="40" height="40" viewBox="0 0 40 40" fill="none" xmlns="http://www.w3.org/2000/svg">
<rect opacity="0.12" width="40" height="40" rx="8" fill="#44C6E2"/>
<path d="M25 13C25 13 25 12.75 25 12.125C25 11.5 24.5 11 24 11H13.25C12.6533 11 12.081 11.2371 11.659 11.659C11.2371 12.081 11 12.6533 11 13.25M11 13.25C11 13.8467 11.2371 14.419 11.659 14.841C12.081 15.2629 12.6533 15.5 13.25 15.5H26.875C27.1734 15.5 27.4595 15.6185 27.6705 15.8295C27.8815 16.0405 28 16.3266 28 16.625V20M11 13.25V26.75C11 27.3467 11.2371 27.919 11.659 28.341C12.081 28.7629 12.6533 29 13.25 29H26.875C27.1734 29 27.4595 28.8815 27.6705 28.6705C27.8815 28.4595 28 28.1734 28 27.875V24.5" stroke="#44C6E2" strokeWidth="2" strokeLinecap="round" stroke-linejoin="round"/>
<path d="M29 20V24.5H24.5C23.9033 24.5 23.331 24.2629 22.909 23.841C22.4871 23.419 22.25 22.8467 22.25 22.25C22.25 21.6533 22.4871 21.081 22.909 20.659C23.331 20.2371 23.9033 20 24.5 20H29Z" stroke="#44C6E2" strokeWidth="2" strokeLinecap="round" stroke-linejoin="round"/>
</svg>
