<svg width="16" height="16" viewBox="0 0 16 16" fill="none" xmlns="http://www.w3.org/2000/svg">
<path fill-rule="evenodd" clip-rule="evenodd" d="M3 5.99107H13.75C14.3467 5.99107 14.919 6.23226 15.341 6.6616C15.7629 7.09093 16 7.67324 16 8.28041V13.7107C16 14.3179 15.7629 14.9002 15.341 15.3295C14.919 15.7588 14.3467 16 13.75 16H2.25C1.65326 16 1.08097 15.7588 0.65901 15.3295C0.237053 14.9002 0 14.3179 0 13.7107V4.48995C0 3.23081 1.00238 1.82928 2.2275 1.65071L11.7736 0.0226676C12.9976 -0.154756 14 0.728928 14 1.98806V4.00299L11 3.98957V2.98883L3 3.98957V5.99107ZM12 9C10.8954 9 10 9.89543 10 11C10 12.1046 10.8954 13 12 13C13.1046 13 14 12.1046 14 11C14 9.89543 13.1046 9 12 9Z" fill="#F5C64B"/>
</svg>
