<svg width="34" height="17" viewBox="0 0 34 17" fill="none" xmlns="http://www.w3.org/2000/svg">
<path opacity="0.48" fill-rule="evenodd" clip-rule="evenodd" d="M33 1L32.12 1.26667C31.2133 1.53333 29.4533 2.06667 27.6667 4.2C25.88 6.33333 24.12 10.0667 22.3333 11.6667C20.5467 13.2667 18.7867 12.7333 17 10.8667C15.2133 9 13.4533 5.8 11.6667 4.2C9.88 2.6 8.12 2.6 6.33333 3.66667C4.54667 4.73333 2.78667 6.86667 1.88 7.93333L1 9V17H1.88C2.78667 17 4.54667 17 6.33333 17C8.12 17 9.88 17 11.6667 17C13.4533 17 15.2133 17 17 17C18.7867 17 20.5467 17 22.3333 17C24.12 17 25.88 17 27.6667 17C29.4533 17 31.2133 17 32.12 17H33V1Z" fill="url(#paint0_linear_1928_855)"/>
<path d="M33 1L32.12 1.26667C31.2133 1.53333 29.4533 2.06667 27.6667 4.2C25.88 6.33333 24.12 10.0667 22.3333 11.6667C20.5467 13.2667 18.7867 12.7333 17 10.8667C15.2133 9 13.4533 5.8 11.6667 4.2C9.88 2.6 8.12 2.6 6.33333 3.66667C4.54667 4.73333 2.78667 6.86667 1.88 7.93333L1 9" stroke="#579AFF" strokeWidth="2" stroke-linecap="round"/>
<defs>
<linearGradient id="paint0_linear_1928_855" x1="17" y1="1" x2="17" y2="17" gradientUnits="userSpaceOnUse">
<stop stop-color="#579AFF"/>
<stop offset="1" stop-color="#579AFF" stop-opacity="0"/>
</linearGradient>
</defs>
</svg>
