<svg width="10" height="12" viewBox="0 0 10 12" fill="none" xmlns="http://www.w3.org/2000/svg">
<path d="M10 1.33333L8.125 4L5 0L1.875 4L0 1.33333V6C0 7.10457 0.895431 8 2 8H8C9.10457 8 10 7.10457 10 6V1.33333ZM1.11111 12H8.88889C9.18357 12 9.46619 11.8595 9.67456 11.6095C9.88294 11.3594 10 11.0203 10 10.6667C10 9.93029 9.40305 9.33333 8.66667 9.33333H1.33333C0.596954 9.33333 0 9.93029 0 10.6667C0 11.0203 0.117063 11.3594 0.325437 11.6095C0.533811 11.8595 0.816426 12 1.11111 12Z" fill="#F5C64B"/>
</svg>
