<svg width="16" height="15" viewBox="0 0 16 15" fill="none" xmlns="http://www.w3.org/2000/svg">
<path d="M6.97595 0.727591C7.29878 -0.24253 8.70095 -0.24253 9.02271 0.727591L10.1741 4.19517C10.2445 4.40635 10.3812 4.59036 10.5648 4.7209C10.7485 4.85143 10.9695 4.92181 11.1964 4.92197H14.9219C15.9647 4.92197 16.3973 6.22811 15.5547 6.82851L12.5416 8.97099C12.3576 9.10164 12.2206 9.28595 12.1502 9.49751C12.0799 9.70906 12.0797 9.93699 12.1499 10.1486L13.3013 13.6162C13.6241 14.5863 12.4888 15.3942 11.6441 14.7938L8.631 12.6513C8.44721 12.5207 8.22591 12.4504 7.99879 12.4504C7.77167 12.4504 7.55037 12.5207 7.36657 12.6513L4.35347 14.7938C3.5098 15.3942 2.37558 14.5863 2.69734 13.6162L3.84877 10.1486C3.91891 9.93699 3.91878 9.70906 3.84842 9.49751C3.77805 9.28595 3.64105 9.10164 3.45707 8.97099L0.445044 6.82956C-0.397549 6.22916 0.0361228 4.92303 1.0778 4.92303H4.80221C5.02932 4.92308 5.25062 4.85281 5.43445 4.72226C5.61827 4.59171 5.75518 4.40758 5.82559 4.19622L6.97702 0.728645L6.97595 0.727591Z" fill="#F5C64B"/>
</svg>
