<svg width="1120" height="224" viewBox="0 0 1120 224" fill="none" xmlns="http://www.w3.org/2000/svg">
<mask id="mask0_1294_249" style="mask-type:alpha" maskUnits="userSpaceOnUse" x="0" y="0" width="1120" height="224">
<rect width="1120" height="224" rx="24" fill="#1C2438"/>
</mask>
<g mask="url(#mask0_1294_249)">
<g opacity="0.88">
<path d="M1105.59 219.924C1102.74 224.906 1097.44 227.98 1091.7 227.982L1046.27 227.997C1040.53 227.999 1035.22 224.922 1032.37 219.934L1009.54 179.961C1006.73 175.041 1006.73 169.001 1009.54 164.082L1032.41 124.076C1035.26 119.094 1040.56 116.02 1046.3 116.018L1091.73 116.003C1097.47 116.001 1102.78 119.078 1105.63 124.066L1128.46 164.039C1131.27 168.959 1131.27 174.999 1128.46 179.918L1105.59 219.924Z" fill="url(#paint0_linear_1294_249)"/>
<path d="M699.588 219.924C696.74 224.906 691.442 227.98 685.703 227.982L640.272 227.997C634.528 227.999 629.223 224.922 626.374 219.934L603.536 179.961C600.725 175.041 600.726 169.001 603.539 164.082L626.412 124.076C629.26 119.094 634.558 116.02 640.297 116.018L685.728 116.003C691.472 116.001 696.777 119.078 699.626 124.066L722.464 164.039C725.275 168.959 725.274 174.999 722.461 179.918L699.588 219.924Z" fill="url(#paint1_linear_1294_249)"/>
<path d="M902.588 219.924C899.74 224.906 894.442 227.98 888.703 227.982L843.272 227.997C837.528 227.999 832.223 224.922 829.374 219.934L806.536 179.961C803.725 175.041 803.726 169.001 806.539 164.082L829.412 124.076C832.26 119.094 837.558 116.02 843.297 116.018L888.728 116.003C894.472 116.001 899.777 119.078 902.626 124.066L925.464 164.039C928.275 168.959 928.274 174.999 925.461 179.918L902.588 219.924Z" fill="url(#paint2_linear_1294_249)"/>
<path d="M496.588 219.924C493.74 224.906 488.442 227.98 482.703 227.982L437.272 227.997C431.528 227.999 426.223 224.922 423.374 219.934L400.536 179.961C397.725 175.041 397.726 169.001 400.539 164.082L423.412 124.076C426.26 119.094 431.558 116.02 437.297 116.018L482.728 116.003C488.472 116.001 493.777 119.078 496.626 124.066L519.464 164.039C522.275 168.959 522.274 174.999 519.461 179.918L496.588 219.924Z" fill="url(#paint3_linear_1294_249)"/>
<path d="M293.588 219.924C290.74 224.906 285.442 227.98 279.703 227.982L234.272 227.997C228.528 227.999 223.223 224.922 220.374 219.934L197.536 179.961C194.725 175.041 194.726 169.001 197.539 164.082L220.412 124.076C223.26 119.094 228.558 116.02 234.297 116.018L279.728 116.003C285.472 116.001 290.777 119.078 293.626 124.066L316.464 164.039C319.275 168.959 319.274 174.999 316.461 179.918L293.588 219.924Z" fill="url(#paint4_linear_1294_249)"/>
<path d="M88.5879 219.924C85.7396 224.906 80.4416 227.98 74.7031 227.982L29.2717 227.997C23.5277 227.999 18.2235 224.922 15.374 219.934L-7.46367 179.961C-10.2745 175.041 -10.2736 169.001 -7.46114 164.082L15.4121 124.076C18.2604 119.094 23.5584 116.02 29.2969 116.018L74.7283 116.003C80.4723 116.001 85.7766 119.078 88.626 124.066L111.464 164.039C114.275 168.959 114.274 174.999 111.461 179.918L88.5879 219.924Z" fill="url(#paint5_linear_1294_249)"/>
<path d="M1206.59 39.9238C1203.74 44.9055 1198.44 47.9804 1192.7 47.9823L1147.27 47.997C1141.53 47.9989 1136.22 44.9215 1133.37 39.9341L1110.54 -0.0392189C1107.73 -4.95916 1107.73 -10.9988 1110.54 -15.9179L1133.41 -55.9238C1136.26 -60.9055 1141.56 -63.9804 1147.3 -63.9823L1192.73 -63.997C1198.47 -63.9989 1203.78 -60.9215 1206.63 -55.9341L1229.46 -15.9608C1232.27 -11.0409 1232.27 -5.00117 1229.46 -0.0821266L1206.59 39.9238Z" fill="url(#paint6_linear_1294_249)"/>
<path d="M800.588 39.9238C797.74 44.9055 792.442 47.9804 786.703 47.9823L741.272 47.997C735.528 47.9989 730.223 44.9215 727.374 39.9341L704.536 -0.0392189C701.725 -4.95916 701.726 -10.9988 704.539 -15.9179L727.412 -55.9238C730.26 -60.9055 735.558 -63.9804 741.297 -63.9823L786.728 -63.997C792.472 -63.9989 797.777 -60.9215 800.626 -55.9341L823.464 -15.9608C826.275 -11.0409 826.274 -5.00117 823.461 -0.0821266L800.588 39.9238Z" fill="url(#paint7_linear_1294_249)"/>
<path d="M394.588 39.9238C391.74 44.9055 386.442 47.9804 380.703 47.9823L335.272 47.997C329.528 47.9989 324.223 44.9215 321.374 39.9341L298.536 -0.0392189C295.725 -4.95916 295.726 -10.9988 298.539 -15.9179L321.412 -55.9238C324.26 -60.9055 329.558 -63.9804 335.297 -63.9823L380.728 -63.997C386.472 -63.9989 391.777 -60.9215 394.626 -55.9341L417.464 -15.9608C420.275 -11.0409 420.274 -5.00117 417.461 -0.0821266L394.588 39.9238Z" fill="url(#paint8_linear_1294_249)"/>
<path d="M191.588 39.9238C188.74 44.9055 183.442 47.9804 177.703 47.9823L132.272 47.997C126.528 47.9989 121.223 44.9215 118.374 39.9341L95.5363 -0.0392189C92.7255 -4.95916 92.7264 -10.9988 95.5389 -15.9179L118.412 -55.9238C121.26 -60.9055 126.558 -63.9804 132.297 -63.9823L177.728 -63.997C183.472 -63.9989 188.777 -60.9215 191.626 -55.9341L214.464 -15.9608C217.275 -11.0409 217.274 -5.00117 214.461 -0.0821266L191.588 39.9238Z" fill="url(#paint9_linear_1294_249)"/>
<path d="M-13.4121 39.9238C-16.2604 44.9055 -21.5584 47.9804 -27.2969 47.9823L-72.7283 47.997C-78.4723 47.9989 -83.7765 44.9215 -86.626 39.9341L-109.464 -0.0392189C-112.275 -4.95916 -112.274 -10.9988 -109.461 -15.9179L-86.5879 -55.9238C-83.7396 -60.9055 -78.4416 -63.9804 -72.7031 -63.9823L-27.2717 -63.997C-21.5277 -63.9989 -16.2234 -60.9215 -13.374 -55.9341L9.46366 -15.9608C12.2745 -11.0409 12.2736 -5.00117 9.46114 -0.0821266L-13.4121 39.9238Z" fill="url(#paint10_linear_1294_249)"/>
<path d="M1206.59 159.924C1203.74 164.906 1198.44 167.98 1192.7 167.982L1147.27 167.997C1141.53 167.999 1136.22 164.922 1133.37 159.934L1110.54 119.961C1107.73 115.041 1107.73 109.001 1110.54 104.082L1133.41 64.0762C1136.26 59.0945 1141.56 56.0196 1147.3 56.0177L1192.73 56.003C1198.47 56.0011 1203.78 59.0785 1206.63 64.0659L1229.46 104.039C1232.27 108.959 1232.27 114.999 1229.46 119.918L1206.59 159.924Z" fill="url(#paint11_linear_1294_249)"/>
<path d="M800.588 159.924C797.74 164.906 792.442 167.98 786.703 167.982L741.272 167.997C735.528 167.999 730.223 164.922 727.374 159.934L704.536 119.961C701.725 115.041 701.726 109.001 704.539 104.082L727.412 64.0762C730.26 59.0945 735.558 56.0196 741.297 56.0177L786.728 56.003C792.472 56.0011 797.777 59.0785 800.626 64.0659L823.464 104.039C826.275 108.959 826.274 114.999 823.461 119.918L800.588 159.924Z" fill="url(#paint12_linear_1294_249)"/>
<path d="M394.588 159.924C391.74 164.906 386.442 167.98 380.703 167.982L335.272 167.997C329.528 167.999 324.223 164.922 321.374 159.934L298.536 119.961C295.725 115.041 295.726 109.001 298.539 104.082L321.412 64.0762C324.26 59.0945 329.558 56.0196 335.297 56.0177L380.728 56.003C386.472 56.0011 391.777 59.0785 394.626 64.0659L417.464 104.039C420.275 108.959 420.274 114.999 417.461 119.918L394.588 159.924Z" fill="url(#paint13_linear_1294_249)"/>
<path d="M191.588 159.924C188.74 164.906 183.442 167.98 177.703 167.982L132.272 167.997C126.528 167.999 121.223 164.922 118.374 159.934L95.5363 119.961C92.7255 115.041 92.7264 109.001 95.5389 104.082L118.412 64.0762C121.26 59.0945 126.558 56.0196 132.297 56.0177L177.728 56.003C183.472 56.0011 188.777 59.0785 191.626 64.0659L214.464 104.039C217.275 108.959 217.274 114.999 214.461 119.918L191.588 159.924Z" fill="url(#paint14_linear_1294_249)"/>
<path d="M-13.4121 159.924C-16.2604 164.906 -21.5584 167.98 -27.2969 167.982L-72.7283 167.997C-78.4723 167.999 -83.7765 164.922 -86.626 159.934L-109.464 119.961C-112.275 115.041 -112.274 109.001 -109.461 104.082L-86.5879 64.0762C-83.7396 59.0945 -78.4416 56.0196 -72.7031 56.0177L-27.2717 56.003C-21.5277 56.0011 -16.2234 59.0785 -13.374 64.0659L9.46366 104.039C12.2745 108.959 12.2736 114.999 9.46114 119.918L-13.4121 159.924Z" fill="url(#paint15_linear_1294_249)"/>
<path d="M1206.59 279.924C1203.74 284.906 1198.44 287.98 1192.7 287.982L1147.27 287.997C1141.53 287.999 1136.22 284.922 1133.37 279.934L1110.54 239.961C1107.73 235.041 1107.73 229.001 1110.54 224.082L1133.41 184.076C1136.26 179.094 1141.56 176.02 1147.3 176.018L1192.73 176.003C1198.47 176.001 1203.78 179.078 1206.63 184.066L1229.46 224.039C1232.27 228.959 1232.27 234.999 1229.46 239.918L1206.59 279.924Z" fill="url(#paint16_linear_1294_249)"/>
<path d="M800.588 279.924C797.74 284.906 792.442 287.98 786.703 287.982L741.272 287.997C735.528 287.999 730.223 284.922 727.374 279.934L704.536 239.961C701.725 235.041 701.726 229.001 704.539 224.082L727.412 184.076C730.26 179.094 735.558 176.02 741.297 176.018L786.728 176.003C792.472 176.001 797.777 179.078 800.626 184.066L823.464 224.039C826.275 228.959 826.274 234.999 823.461 239.918L800.588 279.924Z" fill="url(#paint17_linear_1294_249)"/>
<path d="M394.588 279.924C391.74 284.906 386.442 287.98 380.703 287.982L335.272 287.997C329.528 287.999 324.223 284.922 321.374 279.934L298.536 239.961C295.725 235.041 295.726 229.001 298.539 224.082L321.412 184.076C324.26 179.094 329.558 176.02 335.297 176.018L380.728 176.003C386.472 176.001 391.777 179.078 394.626 184.066L417.464 224.039C420.275 228.959 420.274 234.999 417.461 239.918L394.588 279.924Z" fill="url(#paint18_linear_1294_249)"/>
<path d="M191.588 279.924C188.74 284.906 183.442 287.98 177.703 287.982L132.272 287.997C126.528 287.999 121.223 284.922 118.374 279.934L95.5363 239.961C92.7255 235.041 92.7264 229.001 95.5389 224.082L118.412 184.076C121.26 179.094 126.558 176.02 132.297 176.018L177.728 176.003C183.472 176.001 188.777 179.078 191.626 184.066L214.464 224.039C217.275 228.959 217.274 234.999 214.461 239.918L191.588 279.924Z" fill="url(#paint19_linear_1294_249)"/>
<path d="M-13.4121 279.924C-16.2604 284.906 -21.5584 287.98 -27.2969 287.982L-72.7283 287.997C-78.4723 287.999 -83.7765 284.922 -86.626 279.934L-109.464 239.961C-112.275 235.041 -112.274 229.001 -109.461 224.082L-86.5879 184.076C-83.7396 179.094 -78.4416 176.02 -72.7031 176.018L-27.2717 176.003C-21.5277 176.001 -16.2234 179.078 -13.374 184.066L9.46366 224.039C12.2745 228.959 12.2736 234.999 9.46114 239.918L-13.4121 279.924Z" fill="url(#paint20_linear_1294_249)"/>
<path d="M1003.59 39.9238C1000.74 44.9055 995.442 47.9804 989.703 47.9823L944.272 47.997C938.528 47.9989 933.223 44.9215 930.374 39.9341L907.536 -0.0392189C904.725 -4.95916 904.726 -10.9988 907.539 -15.9179L930.412 -55.9238C933.26 -60.9055 938.558 -63.9804 944.297 -63.9823L989.728 -63.997C995.472 -63.9989 1000.78 -60.9215 1003.63 -55.9341L1026.46 -15.9608C1029.27 -11.0409 1029.27 -5.00117 1026.46 -0.0821266L1003.59 39.9238Z" fill="url(#paint21_linear_1294_249)"/>
<path d="M597.588 39.9238C594.74 44.9055 589.442 47.9804 583.703 47.9823L538.272 47.997C532.528 47.9989 527.223 44.9215 524.374 39.9341L501.536 -0.0392189C498.725 -4.95916 498.726 -10.9988 501.539 -15.9179L524.412 -55.9238C527.26 -60.9055 532.558 -63.9804 538.297 -63.9823L583.728 -63.997C589.472 -63.9989 594.777 -60.9215 597.626 -55.9341L620.464 -15.9608C623.275 -11.0409 623.274 -5.00117 620.461 -0.0821266L597.588 39.9238Z" fill="url(#paint22_linear_1294_249)"/>
<path d="M1003.59 159.924C1000.74 164.906 995.442 167.98 989.703 167.982L944.272 167.997C938.528 167.999 933.223 164.922 930.374 159.934L907.536 119.961C904.725 115.041 904.726 109.001 907.539 104.082L930.412 64.0762C933.26 59.0945 938.558 56.0196 944.297 56.0177L989.728 56.003C995.472 56.0011 1000.78 59.0785 1003.63 64.0659L1026.46 104.039C1029.27 108.959 1029.27 114.999 1026.46 119.918L1003.59 159.924Z" fill="url(#paint23_linear_1294_249)"/>
<path d="M597.588 159.924C594.74 164.906 589.442 167.98 583.703 167.982L538.272 167.997C532.528 167.999 527.223 164.922 524.374 159.934L501.536 119.961C498.725 115.041 498.726 109.001 501.539 104.082L524.412 64.0762C527.26 59.0945 532.558 56.0196 538.297 56.0177L583.728 56.003C589.472 56.0011 594.777 59.0785 597.626 64.0659L620.464 104.039C623.275 108.959 623.274 114.999 620.461 119.918L597.588 159.924Z" fill="url(#paint24_linear_1294_249)"/>
<path d="M1003.59 279.924C1000.74 284.906 995.442 287.98 989.703 287.982L944.272 287.997C938.528 287.999 933.223 284.922 930.374 279.934L907.536 239.961C904.725 235.041 904.726 229.001 907.539 224.082L930.412 184.076C933.26 179.094 938.558 176.02 944.297 176.018L989.728 176.003C995.472 176.001 1000.78 179.078 1003.63 184.066L1026.46 224.039C1029.27 228.959 1029.27 234.999 1026.46 239.918L1003.59 279.924Z" fill="url(#paint25_linear_1294_249)"/>
<path d="M597.588 279.924C594.74 284.906 589.442 287.98 583.703 287.982L538.272 287.997C532.528 287.999 527.223 284.922 524.374 279.934L501.536 239.961C498.725 235.041 498.726 229.001 501.539 224.082L524.412 184.076C527.26 179.094 532.558 176.02 538.297 176.018L583.728 176.003C589.472 176.001 594.777 179.078 597.626 184.066L620.464 224.039C623.275 228.959 623.274 234.999 620.461 239.918L597.588 279.924Z" fill="url(#paint26_linear_1294_249)"/>
<path d="M1105.59 99.9238C1102.74 104.906 1097.44 107.98 1091.7 107.982L1046.27 107.997C1040.53 107.999 1035.22 104.922 1032.37 99.9341L1009.54 59.9608C1006.73 55.0408 1006.73 49.0012 1009.54 44.0821L1032.41 4.07619C1035.26 -0.905535 1040.56 -3.98041 1046.3 -3.98227L1091.73 -3.99699C1097.47 -3.99885 1102.78 -0.92154 1105.63 4.06589L1128.46 44.0392C1131.27 48.9591 1131.27 54.9988 1128.46 59.9179L1105.59 99.9238Z" fill="url(#paint27_linear_1294_249)"/>
<path d="M699.588 99.9238C696.74 104.906 691.442 107.98 685.703 107.982L640.272 107.997C634.528 107.999 629.223 104.922 626.374 99.9341L603.536 59.9608C600.725 55.0408 600.726 49.0012 603.539 44.0821L626.412 4.07619C629.26 -0.905535 634.558 -3.98041 640.297 -3.98227L685.728 -3.99699C691.472 -3.99885 696.777 -0.92154 699.626 4.06589L722.464 44.0392C725.275 48.9591 725.274 54.9988 722.461 59.9179L699.588 99.9238Z" fill="url(#paint28_linear_1294_249)"/>
<path d="M902.588 99.9238C899.74 104.906 894.442 107.98 888.703 107.982L843.272 107.997C837.528 107.999 832.223 104.922 829.374 99.9341L806.536 59.9608C803.725 55.0408 803.726 49.0012 806.539 44.0821L829.412 4.07619C832.26 -0.905535 837.558 -3.98041 843.297 -3.98227L888.728 -3.99699C894.472 -3.99885 899.777 -0.92154 902.626 4.06589L925.464 44.0392C928.275 48.9591 928.274 54.9988 925.461 59.9179L902.588 99.9238Z" fill="url(#paint29_linear_1294_249)"/>
<path d="M496.588 99.9238C493.74 104.906 488.442 107.98 482.703 107.982L437.272 107.997C431.528 107.999 426.223 104.922 423.374 99.9341L400.536 59.9608C397.725 55.0408 397.726 49.0012 400.539 44.0821L423.412 4.07619C426.26 -0.905535 431.558 -3.98041 437.297 -3.98227L482.728 -3.99699C488.472 -3.99885 493.777 -0.92154 496.626 4.06589L519.464 44.0392C522.275 48.9591 522.274 54.9988 519.461 59.9179L496.588 99.9238Z" fill="url(#paint30_linear_1294_249)"/>
<path d="M293.588 99.9238C290.74 104.906 285.442 107.98 279.703 107.982L234.272 107.997C228.528 107.999 223.223 104.922 220.374 99.9341L197.536 59.9608C194.725 55.0408 194.726 49.0012 197.539 44.0821L220.412 4.07619C223.26 -0.905535 228.558 -3.98041 234.297 -3.98227L279.728 -3.99699C285.472 -3.99885 290.777 -0.92154 293.626 4.06589L316.464 44.0392C319.275 48.9591 319.274 54.9988 316.461 59.9179L293.588 99.9238Z" fill="url(#paint31_linear_1294_249)"/>
<path d="M88.5879 99.9238C85.7396 104.906 80.4416 107.98 74.7031 107.982L29.2717 107.997C23.5277 107.999 18.2235 104.922 15.374 99.9341L-7.46367 59.9608C-10.2745 55.0408 -10.2736 49.0012 -7.46114 44.0821L15.4121 4.07619C18.2604 -0.905535 23.5584 -3.98041 29.2969 -3.98227L74.7283 -3.99699C80.4723 -3.99885 85.7766 -0.92154 88.626 4.06589L111.464 44.0392C114.275 48.9591 114.274 54.9988 111.461 59.9179L88.5879 99.9238Z" fill="url(#paint32_linear_1294_249)"/>
</g>
<rect width="1120" height="224" rx="24" fill="url(#paint33_linear_1294_249)"/>
<g opacity="0.72" filter="url(#filter0_f_1294_249)">
<circle cx="884" cy="220" r="100" fill="#2DCBEE"/>
</g>
<g opacity="0.4" filter="url(#filter1_f_1294_249)">
<circle cx="544" cy="220" r="100" fill="#EE2DAC"/>
</g>
<g filter="url(#filter2_f_1294_249)">
<circle cx="1024" cy="4" r="100" fill="#2864FF"/>
</g>
<g opacity="0.64" filter="url(#filter3_f_1294_249)">
<circle cx="684" cy="4" r="100" fill="#8D33FF"/>
</g>
</g>
<defs>
<filter id="filter0_f_1294_249" x="584" y="-80" width="600" height="600" filterUnits="userSpaceOnUse" color-interpolation-filters="sRGB">
<feFlood flood-opacity="0" result="BackgroundImageFix"/>
<feBlend mode="normal" in="SourceGraphic" in2="BackgroundImageFix" result="shape"/>
<feGaussianBlur stdDeviation="100" result="effect1_foregroundBlur_1294_249"/>
</filter>
<filter id="filter1_f_1294_249" x="244" y="-80" width="600" height="600" filterUnits="userSpaceOnUse" color-interpolation-filters="sRGB">
<feFlood flood-opacity="0" result="BackgroundImageFix"/>
<feBlend mode="normal" in="SourceGraphic" in2="BackgroundImageFix" result="shape"/>
<feGaussianBlur stdDeviation="100" result="effect1_foregroundBlur_1294_249"/>
</filter>
<filter id="filter2_f_1294_249" x="724" y="-296" width="600" height="600" filterUnits="userSpaceOnUse" color-interpolation-filters="sRGB">
<feFlood flood-opacity="0" result="BackgroundImageFix"/>
<feBlend mode="normal" in="SourceGraphic" in2="BackgroundImageFix" result="shape"/>
<feGaussianBlur stdDeviation="100" result="effect1_foregroundBlur_1294_249"/>
</filter>
<filter id="filter3_f_1294_249" x="384" y="-296" width="600" height="600" filterUnits="userSpaceOnUse" color-interpolation-filters="sRGB">
<feFlood flood-opacity="0" result="BackgroundImageFix"/>
<feBlend mode="normal" in="SourceGraphic" in2="BackgroundImageFix" result="shape"/>
<feGaussianBlur stdDeviation="100" result="effect1_foregroundBlur_1294_249"/>
</filter>
<linearGradient id="paint0_linear_1294_249" x1="1069" y1="116" x2="1069" y2="228" gradientUnits="userSpaceOnUse">
<stop offset="0.0003" stop-color="#2E3D65"/>
<stop offset="1" stop-color="#131826" stop-opacity="0.25"/>
</linearGradient>
<linearGradient id="paint1_linear_1294_249" x1="663" y1="116" x2="663" y2="228" gradientUnits="userSpaceOnUse">
<stop offset="0.0003" stop-color="#2E3D65"/>
<stop offset="1" stop-color="#131826" stop-opacity="0.25"/>
</linearGradient>
<linearGradient id="paint2_linear_1294_249" x1="866" y1="116" x2="866" y2="228" gradientUnits="userSpaceOnUse">
<stop offset="0.0003" stop-color="#2E3D65"/>
<stop offset="1" stop-color="#131826" stop-opacity="0.25"/>
</linearGradient>
<linearGradient id="paint3_linear_1294_249" x1="460" y1="116" x2="460" y2="228" gradientUnits="userSpaceOnUse">
<stop offset="0.0003" stop-color="#2E3D65"/>
<stop offset="1" stop-color="#131826" stop-opacity="0.25"/>
</linearGradient>
<linearGradient id="paint4_linear_1294_249" x1="257" y1="116" x2="257" y2="228" gradientUnits="userSpaceOnUse">
<stop offset="0.0003" stop-color="#2E3D65"/>
<stop offset="1" stop-color="#131826" stop-opacity="0.25"/>
</linearGradient>
<linearGradient id="paint5_linear_1294_249" x1="52" y1="116" x2="52" y2="228" gradientUnits="userSpaceOnUse">
<stop offset="0.0003" stop-color="#2E3D65"/>
<stop offset="1" stop-color="#131826" stop-opacity="0.25"/>
</linearGradient>
<linearGradient id="paint6_linear_1294_249" x1="1170" y1="-64" x2="1170" y2="48" gradientUnits="userSpaceOnUse">
<stop offset="0.0003" stop-color="#2E3D65"/>
<stop offset="1" stop-color="#131826" stop-opacity="0.25"/>
</linearGradient>
<linearGradient id="paint7_linear_1294_249" x1="764" y1="-64" x2="764" y2="48" gradientUnits="userSpaceOnUse">
<stop offset="0.0003" stop-color="#2E3D65"/>
<stop offset="1" stop-color="#131826" stop-opacity="0.25"/>
</linearGradient>
<linearGradient id="paint8_linear_1294_249" x1="358" y1="-64" x2="358" y2="48" gradientUnits="userSpaceOnUse">
<stop offset="0.0003" stop-color="#2E3D65"/>
<stop offset="1" stop-color="#131826" stop-opacity="0.25"/>
</linearGradient>
<linearGradient id="paint9_linear_1294_249" x1="155" y1="-64" x2="155" y2="48" gradientUnits="userSpaceOnUse">
<stop offset="0.0003" stop-color="#2E3D65"/>
<stop offset="1" stop-color="#131826" stop-opacity="0.25"/>
</linearGradient>
<linearGradient id="paint10_linear_1294_249" x1="-50" y1="-64" x2="-50" y2="48" gradientUnits="userSpaceOnUse">
<stop offset="0.0003" stop-color="#2E3D65"/>
<stop offset="1" stop-color="#131826" stop-opacity="0.25"/>
</linearGradient>
<linearGradient id="paint11_linear_1294_249" x1="1170" y1="56" x2="1170" y2="168" gradientUnits="userSpaceOnUse">
<stop offset="0.0003" stop-color="#2E3D65"/>
<stop offset="1" stop-color="#131826" stop-opacity="0.25"/>
</linearGradient>
<linearGradient id="paint12_linear_1294_249" x1="764" y1="56" x2="764" y2="168" gradientUnits="userSpaceOnUse">
<stop offset="0.0003" stop-color="#2E3D65"/>
<stop offset="1" stop-color="#131826" stop-opacity="0.25"/>
</linearGradient>
<linearGradient id="paint13_linear_1294_249" x1="358" y1="56" x2="358" y2="168" gradientUnits="userSpaceOnUse">
<stop offset="0.0003" stop-color="#2E3D65"/>
<stop offset="1" stop-color="#131826" stop-opacity="0.25"/>
</linearGradient>
<linearGradient id="paint14_linear_1294_249" x1="155" y1="56" x2="155" y2="168" gradientUnits="userSpaceOnUse">
<stop offset="0.0003" stop-color="#2E3D65"/>
<stop offset="1" stop-color="#131826" stop-opacity="0.25"/>
</linearGradient>
<linearGradient id="paint15_linear_1294_249" x1="-50" y1="56" x2="-50" y2="168" gradientUnits="userSpaceOnUse">
<stop offset="0.0003" stop-color="#2E3D65"/>
<stop offset="1" stop-color="#131826" stop-opacity="0.25"/>
</linearGradient>
<linearGradient id="paint16_linear_1294_249" x1="1170" y1="176" x2="1170" y2="288" gradientUnits="userSpaceOnUse">
<stop offset="0.0003" stop-color="#2E3D65"/>
<stop offset="1" stop-color="#131826" stop-opacity="0.25"/>
</linearGradient>
<linearGradient id="paint17_linear_1294_249" x1="764" y1="176" x2="764" y2="288" gradientUnits="userSpaceOnUse">
<stop offset="0.0003" stop-color="#2E3D65"/>
<stop offset="1" stop-color="#131826" stop-opacity="0.25"/>
</linearGradient>
<linearGradient id="paint18_linear_1294_249" x1="358" y1="176" x2="358" y2="288" gradientUnits="userSpaceOnUse">
<stop offset="0.0003" stop-color="#2E3D65"/>
<stop offset="1" stop-color="#131826" stop-opacity="0.25"/>
</linearGradient>
<linearGradient id="paint19_linear_1294_249" x1="155" y1="176" x2="155" y2="288" gradientUnits="userSpaceOnUse">
<stop offset="0.0003" stop-color="#2E3D65"/>
<stop offset="1" stop-color="#131826" stop-opacity="0.25"/>
</linearGradient>
<linearGradient id="paint20_linear_1294_249" x1="-50" y1="176" x2="-50" y2="288" gradientUnits="userSpaceOnUse">
<stop offset="0.0003" stop-color="#2E3D65"/>
<stop offset="1" stop-color="#131826" stop-opacity="0.25"/>
</linearGradient>
<linearGradient id="paint21_linear_1294_249" x1="967" y1="-64" x2="967" y2="48" gradientUnits="userSpaceOnUse">
<stop offset="0.0003" stop-color="#2E3D65"/>
<stop offset="1" stop-color="#131826" stop-opacity="0.25"/>
</linearGradient>
<linearGradient id="paint22_linear_1294_249" x1="561" y1="-64" x2="561" y2="48" gradientUnits="userSpaceOnUse">
<stop offset="0.0003" stop-color="#2E3D65"/>
<stop offset="1" stop-color="#131826" stop-opacity="0.25"/>
</linearGradient>
<linearGradient id="paint23_linear_1294_249" x1="967" y1="56" x2="967" y2="168" gradientUnits="userSpaceOnUse">
<stop offset="0.0003" stop-color="#2E3D65"/>
<stop offset="1" stop-color="#131826" stop-opacity="0.25"/>
</linearGradient>
<linearGradient id="paint24_linear_1294_249" x1="561" y1="56" x2="561" y2="168" gradientUnits="userSpaceOnUse">
<stop offset="0.0003" stop-color="#2E3D65"/>
<stop offset="1" stop-color="#131826" stop-opacity="0.25"/>
</linearGradient>
<linearGradient id="paint25_linear_1294_249" x1="967" y1="176" x2="967" y2="288" gradientUnits="userSpaceOnUse">
<stop offset="0.0003" stop-color="#2E3D65"/>
<stop offset="1" stop-color="#131826" stop-opacity="0.25"/>
</linearGradient>
<linearGradient id="paint26_linear_1294_249" x1="561" y1="176" x2="561" y2="288" gradientUnits="userSpaceOnUse">
<stop offset="0.0003" stop-color="#2E3D65"/>
<stop offset="1" stop-color="#131826" stop-opacity="0.25"/>
</linearGradient>
<linearGradient id="paint27_linear_1294_249" x1="1069" y1="-4" x2="1069" y2="108" gradientUnits="userSpaceOnUse">
<stop offset="0.0003" stop-color="#2E3D65"/>
<stop offset="1" stop-color="#131826" stop-opacity="0.25"/>
</linearGradient>
<linearGradient id="paint28_linear_1294_249" x1="663" y1="-4" x2="663" y2="108" gradientUnits="userSpaceOnUse">
<stop offset="0.0003" stop-color="#2E3D65"/>
<stop offset="1" stop-color="#131826" stop-opacity="0.25"/>
</linearGradient>
<linearGradient id="paint29_linear_1294_249" x1="866" y1="-4" x2="866" y2="108" gradientUnits="userSpaceOnUse">
<stop offset="0.0003" stop-color="#2E3D65"/>
<stop offset="1" stop-color="#131826" stop-opacity="0.25"/>
</linearGradient>
<linearGradient id="paint30_linear_1294_249" x1="460" y1="-4" x2="460" y2="108" gradientUnits="userSpaceOnUse">
<stop offset="0.0003" stop-color="#2E3D65"/>
<stop offset="1" stop-color="#131826" stop-opacity="0.25"/>
</linearGradient>
<linearGradient id="paint31_linear_1294_249" x1="257" y1="-4" x2="257" y2="108" gradientUnits="userSpaceOnUse">
<stop offset="0.0003" stop-color="#2E3D65"/>
<stop offset="1" stop-color="#131826" stop-opacity="0.25"/>
</linearGradient>
<linearGradient id="paint32_linear_1294_249" x1="52" y1="-4" x2="52" y2="108" gradientUnits="userSpaceOnUse">
<stop offset="0.0003" stop-color="#2E3D65"/>
<stop offset="1" stop-color="#131826" stop-opacity="0.25"/>
</linearGradient>
<linearGradient id="paint33_linear_1294_249" x1="285" y1="112" x2="971" y2="112" gradientUnits="userSpaceOnUse">
<stop stop-color="#1C2438"/>
<stop offset="1" stop-color="#1C2438" stop-opacity="0"/>
</linearGradient>
</defs>
</svg>
