<?xml version="1.0" standalone="no"?>
<!DOCTYPE svg PUBLIC "-//W3C//DTD SVG 20010904//EN"
 "http://www.w3.org/TR/2001/REC-SVG-20010904/DTD/svg10.dtd">
<svg version="1.0" xmlns="http://www.w3.org/2000/svg"
 width="376.000000pt" height="376.000000pt" viewBox="0 0 376.000000 376.000000"
 preserveAspectRatio="xMidYMid meet">
<metadata>
Created by potrace 1.14, written by Peter Selinger 2001-2017
</metadata>
<g transform="translate(0.000000,376.000000) scale(0.100000,-0.100000)"
fill="#000000" stroke="none">
<path d="M1745 3739 c-32 -10 -113 -50 -181 -89 -68 -39 -134 -77 -147 -83
-12 -7 -41 -25 -64 -40 -24 -15 -45 -27 -47 -27 -2 0 -98 -55 -213 -121 -114
-67 -226 -132 -248 -144 -163 -90 -438 -253 -475 -282 -76 -57 -144 -160 -166
-249 -11 -43 -13 -1579 -2 -1628 5 -22 22 -70 38 -105 35 -74 129 -172 206
-212 27 -14 117 -66 199 -114 83 -48 170 -99 195 -113 25 -14 78 -45 118 -69
41 -24 75 -43 77 -43 2 0 47 -26 102 -58 54 -32 118 -70 143 -84 25 -14 122
-70 215 -123 235 -136 268 -149 375 -149 129 1 168 16 412 157 188 109 923
535 953 552 114 64 148 87 196 135 31 31 69 80 83 108 55 109 55 95 55 922 1
831 2 814 -56 927 -52 104 -105 145 -414 322 -156 90 -297 172 -314 182 -16
11 -37 22 -45 26 -8 4 -42 23 -75 43 -33 20 -67 39 -75 43 -8 4 -31 17 -50 28
-19 12 -96 56 -170 99 -74 43 -155 90 -180 104 -177 105 -304 129 -445 85z
m568 -1211 c368 -369 415 -420 444 -479 58 -118 75 -239 53 -360 -13 -73 -81
-204 -135 -262 -154 -164 -408 -218 -610 -128 -35 15 -47 17 -66 7 -36 -17
-37 -64 -5 -214 7 -33 46 -142 62 -174 19 -36 18 -62 -3 -80 -14 -11 -51 -14
-181 -13 -208 1 -206 -1 -148 144 19 47 37 97 40 111 3 14 8 36 11 50 3 14 8
54 12 90 9 99 -12 109 -134 65 -188 -67 -392 -21 -542 121 -111 104 -167 230
-170 384 -3 120 36 237 108 330 20 25 209 219 422 433 270 270 394 387 409
387 15 0 145 -124 433 -412z"/>
</g>
</svg>
